<?xml version="1.0" encoding="UTF-8"?>
<svg id="Layer_2" data-name="Layer 2" xmlns="http://www.w3.org/2000/svg" viewBox="0 0 1391.91 442.78">
  <defs>
    <style>
      .cls-1 {
        fill: #b21807;
        stroke-width: 0px;
      }
    </style>
  </defs>
  <g id="Layer_1-2" data-name="Layer 1">
    <g>
      <g>
        <g>
          <g>
            <path class="cls-1" d="M562.78,193.56c-2.04.22-4.04.34-6,.34-.99,0-1.7-.21-2.15-.62-.46-.42-.68-1.04-.68-1.87,0-.68.25-1.3.74-1.87.49-.57,1.23-1.23,2.21-1.98,1.66-1.28,2.92-2.51,3.79-3.68.87-1.17,1.3-2.74,1.3-4.7v-58.52h-4.41c-2.87,0-5.3.86-7.3,2.6-2,1.74-4.02,4.07-6.06,7.02-1.43,1.96-2.55,3.36-3.34,4.19-.79.83-1.64,1.25-2.55,1.25-.98,0-1.47-.49-1.47-1.48,0-1.12.34-3.12,1.02-5.99,1.05-3.92,1.58-7.29,1.58-10.07,0-1.59.32-2.66.96-3.22.64-.57,1.79-.85,3.45-.85h57.39c1.66,0,2.79.29,3.39.85.6.57.91,1.64.91,3.22,0,2.79.53,6.15,1.58,10.07.68,2.87,1.02,4.87,1.02,5.99,0,.46-.13.82-.4,1.08-.26.27-.59.4-.96.4-.91,0-1.79-.46-2.66-1.36-.87-.91-1.95-2.27-3.23-4.08-2.11-3.02-4.17-5.37-6.17-7.07-2-1.7-4.44-2.55-7.3-2.55h-4.19v58.41c0,1.96.43,3.55,1.3,4.76s2.13,2.45,3.79,3.74c1.13.98,1.91,1.69,2.32,2.15.41.46.62,1.02.62,1.7,0,1.65-.99,2.49-2.95,2.49l-5.43-.23c-2.04-.22-3.89-.33-5.55-.33h-9.62c-.91,0-2.57.07-4.98.22Z"/>
            <path class="cls-1" d="M616.89,193.68c-2.26.15-3.85.23-4.75.23-1.89,0-2.83-.84-2.83-2.49,0-.6.15-1.15.46-1.64.3-.49.62-.92.96-1.3.34-.38.58-.64.73-.79,1.13-1.13,2-2.21,2.6-3.22.6-1.02.91-2.36.91-4.02v-51.05c0-1.81-.28-3.24-.85-4.3-.57-1.06-1.31-2.04-2.21-2.95-.38-.46-.72-.88-1.02-1.3-.3-.41-.45-.85-.45-1.3,0-.83.41-1.54,1.25-2.15.83-.6,2.07-.95,3.74-1.02,2.04-.07,3.83-.3,5.38-.68,1.55-.38,3.49-.99,5.83-1.81,1.06-.38,2.1-.72,3.11-1.02,1.02-.3,1.94-.45,2.77-.45.91,0,1.57.26,1.98.79.41.53.62,1.39.62,2.6v30.68h.34c1.43-3.32,3.66-6.08,6.68-8.26,3.02-2.19,6.6-3.28,10.75-3.28,11.1,0,16.64,5.35,16.64,16.07v29.43c0,1.66.3,3,.91,4.02.6,1.01,1.47,2.09,2.61,3.22.15.15.43.47.85.96.41.49.74.95.96,1.36.23.42.34.89.34,1.42,0,1.65-.94,2.49-2.83,2.49-.9,0-2.49-.08-4.75-.23-1.81-.22-4.04-.33-6.68-.33h-2.94c-2.64,0-4.87.11-6.68.33-2.26.15-3.85.23-4.75.23-1.89,0-2.83-.84-2.83-2.49,0-.6.15-1.15.45-1.64s.62-.92.97-1.3c.34-.38.58-.64.73-.79,1.13-1.13,2-2.21,2.6-3.22.6-1.02.91-2.36.91-4.02v-28.3c0-4.98-1.77-7.47-5.32-7.47-2.04,0-3.85,1.13-5.43,3.39-1.58,2.27-2.76,5.47-3.51,9.63v22.75c0,1.66.3,3,.9,4.02.6,1.01,1.47,2.09,2.61,3.22.15.15.43.47.85.96.42.49.74.95.97,1.36.22.42.34.89.34,1.42,0,1.65-.95,2.49-2.83,2.49-.91,0-2.49-.08-4.76-.23-1.81-.22-4.04-.33-6.68-.33h-2.94c-2.64,0-4.87.11-6.68.33Z"/>
            <path class="cls-1" d="M695.38,190.51c-4.94-2.26-8.94-5.6-12-10.02-3.06-4.41-4.59-9.75-4.59-16.01,0-6.79,1.55-12.49,4.64-17.1,3.09-4.6,7.21-8.03,12.34-10.3,5.13-2.27,10.71-3.39,16.75-3.39,4.6,0,8.87.73,12.79,2.2,3.92,1.47,7.05,3.57,9.4,6.28,2.34,2.71,3.51,5.88,3.51,9.51,0,4.38-1.62,7.74-4.86,10.07-3.25,2.34-8.11,3.51-14.6,3.51h-18.79c.45,6.56,2.45,11.5,6,14.83,3.55,3.32,7.77,4.98,12.68,4.98,3.17,0,5.85-.44,8.03-1.31,2.19-.86,4.27-2.09,6.23-3.67,1.81-1.28,3.06-1.66,3.74-1.13.3.3.46.64.46,1.01,0,.53-.31,1.21-.91,2.04-5.44,7.92-13.73,11.89-24.9,11.89-5.66,0-10.96-1.13-15.9-3.4ZM709.82,160.06c3.47,0,6.19-.84,8.15-2.49,1.97-1.66,2.95-3.92,2.95-6.79,0-2.56-.76-4.68-2.26-6.34-1.51-1.66-3.55-2.49-6.11-2.49-3.47,0-6.37,1.49-8.72,4.47-2.34,2.98-3.66,7.53-3.96,13.64h9.96Z"/>
          </g>
          <g>
            <path class="cls-1" d="M772.07,193.56c-2.04.22-4,.34-5.88.34s-2.95-.84-2.95-2.49c0-.68.25-1.3.73-1.87.49-.57,1.23-1.23,2.21-1.98,1.66-1.28,2.92-2.51,3.79-3.68.86-1.17,1.3-2.74,1.3-4.7v-50.82c0-1.96-.44-3.55-1.3-4.76-.87-1.2-2.13-2.44-3.79-3.73-1.13-.99-1.91-1.7-2.32-2.16s-.62-1.02-.62-1.7c0-1.65.98-2.49,2.95-2.49.83,0,2.6.08,5.32.23,2.04.22,3.92.33,5.66.33h32.48c8.15,0,14.53,1.91,19.13,5.72,4.6,3.82,6.9,9.23,6.9,16.24,0,4.98-1.32,9.25-3.96,12.8-2.64,3.55-6.19,5.7-10.64,6.45,2.34.9,4.34,2.68,6,5.32,1.66,2.64,3.24,6.07,4.75,10.3,3.85,11.1,7.7,17.32,11.55,18.68,1.36.75,2.04,1.54,2.04,2.38,0,.9-.86,1.36-2.6,1.36h-8.72c-4.6,0-8.3-.55-11.09-1.64-2.79-1.09-5.12-2.92-6.96-5.49-1.85-2.56-3.64-6.26-5.38-11.09-2.42-6.34-4.66-11.04-6.74-14.1-2.08-3.06-4.43-4.58-7.08-4.58h-4.3v22.64c0,1.96.43,3.55,1.3,4.76.86,1.21,2.13,2.45,3.79,3.74,1.13.98,1.91,1.69,2.32,2.15.41.46.62,1.02.62,1.7,0,1.65-.98,2.49-2.94,2.49-.83,0-2.6-.08-5.32-.23-2.04-.22-3.93-.33-5.66-.33h-9.51c-.99,0-2.68.07-5.1.22ZM800.94,149.87c4.6,0,7.98-1.03,10.13-3.11,2.15-2.07,3.22-5.56,3.22-10.46,0-4.08-.45-7.25-1.36-9.51-.91-2.27-2.3-3.86-4.19-4.76-1.89-.91-4.45-1.36-7.69-1.36h-8.49v29.2h8.37Z"/>
            <path class="cls-1" d="M862.12,190.51c-4.94-2.26-8.94-5.6-12-10.02-3.06-4.41-4.59-9.75-4.59-16.01,0-6.79,1.55-12.49,4.64-17.1,3.09-4.6,7.21-8.03,12.34-10.3,5.13-2.27,10.71-3.39,16.75-3.39,4.6,0,8.87.73,12.79,2.2,3.93,1.47,7.06,3.57,9.4,6.28,2.34,2.71,3.51,5.88,3.51,9.51,0,4.38-1.63,7.74-4.87,10.07-3.24,2.34-8.11,3.51-14.6,3.51h-18.79c.45,6.56,2.45,11.5,6,14.83,3.55,3.32,7.77,4.98,12.68,4.98,3.17,0,5.85-.44,8.04-1.31,2.19-.86,4.26-2.09,6.23-3.67,1.81-1.28,3.05-1.66,3.74-1.13.3.3.45.64.45,1.01,0,.53-.3,1.21-.91,2.04-5.43,7.92-13.73,11.89-24.9,11.89-5.66,0-10.97-1.13-15.9-3.4ZM876.55,160.06c3.47,0,6.18-.84,8.15-2.49,1.96-1.66,2.94-3.92,2.94-6.79,0-2.56-.75-4.68-2.26-6.34-1.51-1.66-3.55-2.49-6.11-2.49-3.48,0-6.38,1.49-8.72,4.47-2.34,2.98-3.66,7.53-3.96,13.64h9.96Z"/>
            <path class="cls-1" d="M911.7,190.34c-2.98-2.38-4.47-5.95-4.47-10.7,0-4.3,1.58-8.04,4.75-11.21,3.17-3.17,7.42-5.62,12.74-7.36,5.32-1.73,11.22-2.71,17.71-2.94v-7.7c0-4-.51-6.92-1.53-8.77-1.02-1.85-2.74-2.77-5.15-2.77-1.89,0-3.38.59-4.47,1.76-1.1,1.17-2.32,2.96-3.68,5.37-1.44,2.56-2.81,4.52-4.13,5.84-1.32,1.32-3.11,1.98-5.38,1.98-1.89,0-3.43-.6-4.64-1.81-1.21-1.21-1.81-2.72-1.81-4.53,0-4.15,2.17-7.49,6.51-10.02,4.34-2.53,10.09-3.79,17.26-3.79,8.07,0,14.62,1.71,19.64,5.15,5.02,3.43,7.53,8.92,7.53,16.47v20.15c0,2.8.28,4.93.85,6.39.57,1.48,1.34,2.93,2.32,4.36.38.53.72,1.08,1.02,1.64s.45,1.12.45,1.64c0,.9-.38,1.54-1.13,1.92-.76.37-2.08.64-3.96.79l-8.26.9c-4.07.53-7.02.8-8.83.8-.9,0-1.57-.27-1.98-.8s-.62-1.47-.62-2.83v-4.08c-2.04,2.19-4.68,4.02-7.92,5.49-3.25,1.47-7.06,2.21-11.43,2.21-4.6,0-8.4-1.19-11.37-3.57ZM928.11,182.7c1.4,1.36,3.27,2.04,5.6,2.04,1.81,0,3.45-.46,4.93-1.36,1.47-.91,2.74-2.11,3.79-3.62v-17.09c-4.91.53-8.87,2.07-11.89,4.64-3.02,2.56-4.53,5.73-4.53,9.51,0,2.57.7,4.53,2.09,5.89Z"/>
            <path class="cls-1" d="M977.63,193.68c-2.26.15-3.85.23-4.75.23-1.89,0-2.83-.84-2.83-2.49,0-.6.15-1.15.46-1.64.3-.49.62-.92.96-1.3.34-.38.58-.64.73-.79,1.13-1.13,2-2.21,2.6-3.22.6-1.02.91-2.36.91-4.02v-51.05c0-1.81-.28-3.24-.85-4.3-.57-1.06-1.31-2.04-2.21-2.95-.38-.46-.72-.88-1.02-1.3-.3-.41-.45-.85-.45-1.3,0-.83.41-1.54,1.25-2.15.83-.6,2.07-.95,3.74-1.02,2.04-.07,3.83-.3,5.38-.68,1.55-.38,3.49-.99,5.83-1.81,1.06-.38,2.1-.72,3.11-1.02,1.02-.3,1.94-.45,2.77-.45.91,0,1.57.26,1.98.79.41.53.62,1.39.62,2.6v64.63c0,1.66.3,3,.9,4.02.6,1.01,1.47,2.09,2.61,3.22.15.15.43.47.85.96.42.49.74.95.97,1.36.22.42.34.89.34,1.42,0,1.65-.95,2.49-2.83,2.49-.91,0-2.49-.08-4.76-.23-1.81-.22-4.04-.33-6.68-.33h-2.94c-2.64,0-4.87.11-6.68.33Z"/>
          </g>
          <g>
            <path class="cls-1" d="M1035.02,193.56c-2.04.22-4,.34-5.88.34s-2.95-.84-2.95-2.49c0-.68.25-1.3.73-1.87.49-.57,1.23-1.23,2.21-1.98,1.66-1.28,2.92-2.51,3.79-3.68.86-1.17,1.3-2.74,1.3-4.7v-50.82c0-1.96-.44-3.55-1.3-4.76-.87-1.2-2.13-2.44-3.79-3.73-1.13-.99-1.91-1.7-2.32-2.16s-.62-1.02-.62-1.7c0-1.65.98-2.49,2.95-2.49.83,0,2.6.08,5.32.23,2.04.22,3.92.33,5.66.33h48.33c1.66,0,2.79.29,3.4.85.6.57.91,1.64.91,3.22,0,2.64.53,5.99,1.58,10.07.68,2.71,1.02,4.71,1.02,5.99,0,.99-.46,1.48-1.36,1.48s-1.81-.44-2.72-1.3c-.91-.87-1.97-2.21-3.17-4.02-2.26-3.09-4.4-5.48-6.4-7.18-2-1.7-4.51-2.55-7.53-2.55h-18.67v29.76h15.28c1.74,0,3.11-.62,4.14-1.87,1.02-1.25,2.05-2.99,3.11-5.26.68-1.36,1.2-2.34,1.58-2.95.38-.6.83-.9,1.36-.9,1.28,0,1.92,1.13,1.92,3.39,0,1.81-.11,3.62-.34,5.44-.15,2.26-.23,3.96-.23,5.09s.07,2.83.23,5.09c.23,1.89.34,3.92.34,6.11s-.64,3.39-1.92,3.39c-.53,0-.98-.3-1.36-.9-.38-.6-.91-1.59-1.58-2.95-1.06-2.26-2.1-4.01-3.11-5.26-1.02-1.25-2.4-1.87-4.14-1.87h-15.28v22.07c0,1.96.43,3.55,1.3,4.76.86,1.21,2.13,2.45,3.79,3.74,1.13.98,1.91,1.69,2.32,2.15.41.46.62,1.02.62,1.7,0,1.65-.98,2.49-2.94,2.49-.83,0-2.6-.08-5.32-.23-2.04-.22-3.93-.33-5.66-.33h-9.51c-.99,0-2.68.07-5.1.22Z"/>
            <path class="cls-1" d="M1097.11,190.34c-2.98-2.38-4.47-5.95-4.47-10.7,0-4.3,1.58-8.04,4.75-11.21,3.17-3.17,7.42-5.62,12.74-7.36,5.32-1.73,11.23-2.71,17.72-2.94v-7.7c0-4-.51-6.92-1.53-8.77-1.02-1.85-2.74-2.77-5.15-2.77-1.89,0-3.38.59-4.47,1.76-1.1,1.17-2.32,2.96-3.68,5.37-1.43,2.56-2.81,4.52-4.13,5.84-1.32,1.32-3.11,1.98-5.38,1.98-1.89,0-3.43-.6-4.64-1.81-1.21-1.21-1.81-2.72-1.81-4.53,0-4.15,2.17-7.49,6.51-10.02,4.34-2.53,10.09-3.79,17.26-3.79,8.08,0,14.62,1.71,19.64,5.15,5.02,3.43,7.53,8.92,7.53,16.47v20.15c0,2.8.28,4.93.85,6.39.56,1.48,1.34,2.93,2.32,4.36.38.53.72,1.08,1.02,1.64.3.57.46,1.12.46,1.64,0,.9-.38,1.54-1.13,1.92-.75.37-2.08.64-3.96.79l-8.27.9c-4.07.53-7.02.8-8.83.8-.91,0-1.57-.27-1.98-.8-.42-.53-.62-1.47-.62-2.83v-4.08c-2.04,2.19-4.68,4.02-7.93,5.49-3.24,1.47-7.05,2.21-11.43,2.21-4.6,0-8.4-1.19-11.37-3.57ZM1113.52,182.7c1.39,1.36,3.26,2.04,5.6,2.04,1.81,0,3.45-.46,4.93-1.36,1.47-.91,2.73-2.11,3.79-3.62v-17.09c-4.91.53-8.87,2.07-11.89,4.64-3.02,2.56-4.53,5.73-4.53,9.51,0,2.57.7,4.53,2.1,5.89Z"/>
            <path class="cls-1" d="M1163.04,193.68c-2.26.15-3.85.23-4.75.23-1.89,0-2.83-.84-2.83-2.49,0-.6.15-1.15.45-1.64s.62-.92.96-1.3.59-.64.74-.79c1.13-1.13,2-2.21,2.6-3.22.6-1.02.91-2.36.91-4.02v-27.05c0-1.96-.26-3.49-.79-4.58-.53-1.1-1.28-2.21-2.26-3.35-.38-.45-.72-.9-1.02-1.36-.3-.46-.46-.94-.46-1.47,0-.91.41-1.68,1.25-2.32.83-.64,2.08-.99,3.74-1.08,2.04-.07,3.83-.32,5.38-.73,1.55-.41,3.53-1.07,5.94-1.98,2.49-1.06,4.41-1.58,5.78-1.58.91,0,1.57.26,1.98.79.41.53.62,1.47.62,2.83v7.93h.34c1.43-3.32,3.66-6.08,6.68-8.26,3.02-2.19,6.6-3.28,10.76-3.28,9.35,0,14.79,3.85,16.3,11.54h.23c1.73-3.24,4.01-5.98,6.84-8.21,2.83-2.23,6.7-3.34,11.6-3.34s8.91,1.28,11.77,3.85c2.87,2.56,4.3,6.64,4.3,12.22v29.43c0,1.66.3,3,.91,4.02.6,1.01,1.47,2.09,2.6,3.22.15.15.43.47.85.96.41.49.73.95.96,1.36.22.42.34.89.34,1.42,0,1.65-.94,2.49-2.83,2.49-.91,0-2.49-.08-4.75-.23-1.81-.22-4.04-.33-6.68-.33h-2.94c-2.64,0-4.87.11-6.68.33-2.27.15-3.85.23-4.76.23-1.89,0-2.83-.84-2.83-2.49,0-.6.15-1.15.46-1.64.3-.49.62-.92.96-1.3s.58-.64.73-.79c1.13-1.13,2-2.21,2.61-3.22.6-1.02.9-2.36.9-4.02v-28.19c0-5.06-1.73-7.58-5.2-7.58-2.11,0-3.96,1.12-5.55,3.34-1.58,2.23-2.76,5.27-3.51,9.12v23.32c0,1.66.3,3,.91,4.02.6,1.01,1.47,2.09,2.6,3.22.15.15.43.47.85.96.41.49.73.95.96,1.36.23.42.34.89.34,1.42,0,1.65-.94,2.49-2.83,2.49-.91,0-2.49-.08-4.75-.23-1.81-.22-4.04-.33-6.68-.33h-2.94c-2.64,0-4.87.11-6.68.33-2.27.15-3.85.23-4.75.23-1.89,0-2.83-.84-2.83-2.49,0-.6.15-1.15.45-1.64s.62-.92.96-1.3c.34-.38.59-.64.73-.79,1.13-1.13,2-2.21,2.61-3.22.6-1.02.91-2.36.91-4.02v-28.3c0-4.98-1.77-7.47-5.32-7.47-2.04,0-3.85,1.13-5.44,3.39-1.58,2.27-2.76,5.47-3.51,9.63v22.75c0,1.66.3,3,.91,4.02.6,1.01,1.47,2.09,2.6,3.22.15.15.44.47.85.96.41.49.73.95.96,1.36.23.42.34.89.34,1.42,0,1.65-.94,2.49-2.83,2.49-.91,0-2.49-.08-4.75-.23-1.81-.22-4.04-.33-6.68-.33h-2.95c-2.64,0-4.86.11-6.68.33Z"/>
            <path class="cls-1" d="M1266.39,193.68c-2.26.15-3.85.23-4.75.23-.99,0-1.7-.21-2.15-.62-.46-.42-.68-1.04-.68-1.87,0-.6.15-1.15.45-1.64s.62-.92.96-1.3c.34-.38.59-.64.74-.79,1.13-1.13,2-2.21,2.6-3.22.6-1.02.91-2.36.91-4.02v-27.05c0-1.96-.26-3.49-.79-4.58-.53-1.1-1.28-2.21-2.26-3.35-1.06-1.05-1.58-2-1.58-2.83,0-.91.43-1.68,1.3-2.32s2.13-.99,3.79-1.08c2.04-.07,3.83-.32,5.38-.73,1.55-.41,3.53-1.07,5.94-1.98,2.49-1.06,4.41-1.58,5.78-1.58.91,0,1.57.26,1.98.79.41.53.62,1.47.62,2.83v41.88c0,1.66.3,3,.91,4.02.6,1.01,1.47,2.09,2.6,3.22.15.15.44.47.85.96.41.49.73.95.96,1.36.23.42.34.89.34,1.42,0,1.65-.94,2.49-2.83,2.49-1.06,0-2.64-.08-4.75-.23-1.89-.22-4.11-.33-6.68-.33h-3.06c-2.56,0-4.75.11-6.57.33ZM1265.76,125.6c-2.3-2.23-3.45-4.89-3.45-7.98s1.15-5.62,3.45-7.82c2.3-2.18,5.11-3.28,8.43-3.28s6.13,1.1,8.43,3.28c2.3,2.19,3.45,4.8,3.45,7.82s-1.15,5.75-3.45,7.98c-2.3,2.22-5.12,3.34-8.43,3.34s-6.13-1.12-8.43-3.34Z"/>
            <path class="cls-1" d="M1300.68,193.68c-2.26.15-3.85.23-4.75.23-1.89,0-2.83-.84-2.83-2.49,0-.6.15-1.15.45-1.64s.62-.92.96-1.3.59-.64.74-.79c1.13-1.13,2-2.21,2.6-3.22.6-1.02.91-2.36.91-4.02v-51.05c0-1.81-.28-3.24-.85-4.3s-1.3-2.04-2.21-2.95c-.38-.46-.72-.88-1.02-1.3-.3-.41-.46-.85-.46-1.3,0-.83.41-1.54,1.25-2.15s2.08-.95,3.74-1.02c2.04-.07,3.83-.3,5.38-.68,1.55-.38,3.49-.99,5.83-1.81,1.05-.38,2.1-.72,3.11-1.02,1.02-.3,1.94-.45,2.77-.45.91,0,1.57.26,1.98.79.41.53.62,1.39.62,2.6v64.63c0,1.66.3,3,.91,4.02.6,1.01,1.47,2.09,2.6,3.22.15.15.44.47.85.96.41.49.73.95.96,1.36.23.42.34.89.34,1.42,0,1.65-.94,2.49-2.83,2.49-.91,0-2.49-.08-4.75-.23-1.81-.22-4.04-.33-6.68-.33h-2.95c-2.64,0-4.86.11-6.68.33Z"/>
            <path class="cls-1" d="M1331.7,217.61c-2.19-1.69-3.29-4.01-3.29-6.96,0-2.56.78-4.64,2.32-6.23,1.54-1.58,3.49-2.37,5.83-2.37,1.51,0,2.83.2,3.96.62,1.13.41,2.49,1.03,4.07,1.87.75.45,1.53.85,2.32,1.19.79.33,1.53.5,2.21.5,1.66,0,3.32-1.03,4.98-3.11,1.66-2.07,3.06-4.54,4.19-7.41-2.34-.16-4.27-.76-5.78-1.81-1.51-1.06-2.87-3.09-4.07-6.11l-15.39-38.49c-.68-1.58-1.51-2.88-2.49-3.9-.98-1.01-2.23-2.09-3.74-3.22-1.21-.83-2.09-1.56-2.66-2.2s-.85-1.42-.85-2.32c0-1.89,1.17-2.83,3.51-2.83,1.96,0,3.89.12,5.78.34,4.75.22,7.55.33,8.37.33h.46c2.64,0,4.98-.11,7.02-.33,2.27-.15,3.93-.22,4.98-.22s1.83.2,2.32.62c.49.41.73,1.07.73,1.98,0,.6-.11,1.12-.34,1.52-.23.42-.51.81-.85,1.19-.34.38-.55.64-.62.79-.75.76-1.32,1.46-1.7,2.1-.38.64-.57,1.41-.57,2.31,0,.84.23,1.81.68,2.95l12,29.77,10.64-28.64c.46-1.13.68-2.11.68-2.95,0-1.05-.23-1.94-.68-2.66-.45-.72-1.09-1.49-1.92-2.32-.15-.15-.45-.46-.91-.96-.45-.49-.79-.99-1.02-1.48-.23-.48-.34-.99-.34-1.52,0-1.89,1.13-2.83,3.4-2.83,1.51,0,3.92.16,7.24.46,2.26-.22,4.41-.33,6.45-.33,2.18,0,3.28.83,3.28,2.48,0,.76-.25,1.4-.73,1.93-.49.52-1.34,1.25-2.55,2.15-1.51,1.06-2.72,2.04-3.62,2.95-.91.9-1.62,2.07-2.15,3.5l-16.64,42.34c-2.49,6.41-4.91,11.72-7.24,15.9-2.34,4.19-5.04,7.56-8.09,10.13-3.06,2.56-6.62,3.86-10.7,3.86-3.47,0-6.3-.85-8.49-2.56Z"/>
          </g>
        </g>
        <g>
          <g>
            <path class="cls-1" d="M561.37,305.76c-4.64-.9-8.26-2.05-10.87-3.45-2.6-1.39-4.02-2.78-4.24-4.14-1.58-9.58-2.38-15.58-2.38-18,0-.98.49-1.47,1.47-1.47.6,0,2.19,1.47,4.75,4.41,4.45,4.98,8.9,9.13,13.36,12.45,4.45,3.32,9.47,4.98,15.05,4.98,3.69,0,6.58-.81,8.66-2.43,2.08-1.62,3.11-3.68,3.11-6.17,0-2.33-.89-4.58-2.66-6.73-1.77-2.16-3.96-4.14-6.57-5.95-2.6-1.81-6.17-4.11-10.7-6.9-5.44-3.24-9.81-6.08-13.13-8.49-3.32-2.41-6.15-5.19-8.49-8.32-2.34-3.13-3.51-6.58-3.51-10.35s1.31-7.45,3.91-10.58c2.6-3.13,6.55-5.62,11.83-7.47,5.28-1.85,11.81-2.78,19.58-2.78,7.17,0,12.9.57,17.21,1.7,4.3,1.13,6.64,2.6,7.02,4.41,1.81,9.13,2.71,14.45,2.71,15.97,0,1.12-.53,1.69-1.58,1.69-.68,0-1.45-.37-2.32-1.12-.87-.76-2.17-2.04-3.91-3.86-3.7-3.77-7.19-6.78-10.47-9.05-3.29-2.27-6.96-3.39-11.04-3.39s-7.15.7-9.23,2.09c-2.08,1.39-3.11,3.3-3.11,5.72,0,2.8,1.47,5.42,4.41,7.87,2.95,2.45,7.51,5.48,13.7,9.11,5.66,3.33,10.25,6.24,13.75,8.77,3.51,2.53,6.53,5.51,9.06,8.94,2.53,3.44,3.79,7.27,3.79,11.5,0,7.31-2.98,12.88-8.94,16.69-5.96,3.81-14.03,5.72-24.22,5.72-6.04,0-11.37-.45-16.02-1.36Z"/>
            <path class="cls-1" d="M617.51,303.54c-2.98-2.38-4.47-5.95-4.47-10.7,0-4.3,1.58-8.04,4.75-11.21,3.17-3.17,7.42-5.62,12.74-7.36,5.32-1.73,11.23-2.71,17.72-2.94v-7.7c0-4-.51-6.92-1.53-8.77-1.02-1.85-2.74-2.77-5.15-2.77-1.89,0-3.38.59-4.47,1.76-1.1,1.17-2.32,2.96-3.68,5.37-1.43,2.56-2.81,4.52-4.13,5.84-1.32,1.32-3.11,1.98-5.38,1.98-1.89,0-3.43-.6-4.64-1.81-1.21-1.21-1.81-2.72-1.81-4.53,0-4.15,2.17-7.49,6.51-10.02,4.34-2.53,10.09-3.79,17.26-3.79,8.08,0,14.62,1.71,19.64,5.15,5.02,3.43,7.53,8.92,7.53,16.47v20.15c0,2.8.28,4.93.85,6.39.56,1.48,1.34,2.93,2.32,4.36.38.53.72,1.08,1.02,1.64s.46,1.12.46,1.64c0,.9-.38,1.54-1.13,1.92-.75.37-2.08.64-3.96.79l-8.27.9c-4.07.53-7.02.8-8.83.8-.91,0-1.57-.27-1.98-.8-.42-.53-.62-1.47-.62-2.83v-4.08c-2.04,2.19-4.68,4.02-7.93,5.49-3.24,1.47-7.05,2.21-11.43,2.21-4.6,0-8.4-1.19-11.37-3.57ZM633.92,295.91c1.39,1.36,3.26,2.04,5.6,2.04,1.81,0,3.45-.46,4.93-1.36,1.47-.91,2.73-2.11,3.79-3.62v-17.09c-4.91.53-8.87,2.07-11.89,4.64-3.02,2.56-4.53,5.73-4.53,9.51,0,2.57.7,4.53,2.1,5.89Z"/>
            <path class="cls-1" d="M682.6,303.26c-2.83-2.56-4.25-6.64-4.25-12.22v-29.43c0-1.66-.3-3-.91-4.01-.6-1.02-1.47-2.1-2.6-3.23-.15-.15-.44-.46-.85-.96s-.73-.95-.96-1.36c-.23-.42-.34-.89-.34-1.42,0-.83.23-1.45.68-1.86.46-.42,1.17-.62,2.15-.62.91,0,2.49.07,4.75.22,1.81.22,4,.33,6.57.33h10.53c1.43,0,2.15.57,2.15,1.7,0,.22-.17.87-.51,1.92-.34,1.06-.51,2.23-.51,3.51v34.07c0,2.65.57,4.65,1.7,6,1.13,1.36,2.72,2.04,4.75,2.04,1.36,0,2.72-.57,4.07-1.7s2.6-2.64,3.74-4.53v-30.11c0-1.66-.3-3-.91-4.01-.6-1.02-1.47-2.1-2.6-3.23-.15-.15-.44-.46-.85-.96s-.73-.95-.96-1.36c-.23-.42-.34-.89-.34-1.42,0-.83.23-1.45.68-1.86.46-.42,1.17-.62,2.15-.62s2.53.07,4.64.22c1.96.22,4.19.33,6.68.33h10.53c1.43,0,2.15.57,2.15,1.7,0,.22-.17.87-.51,1.92-.34,1.06-.51,2.23-.51,3.51v32.82c0,2.8.28,4.93.85,6.39.57,1.48,1.34,2.93,2.32,4.36.91,1.29,1.36,2.38,1.36,3.29s-.4,1.58-1.19,2.04c-.79.46-2.06.72-3.79.79-3.85.07-7.62.42-11.32,1.02-2.49.37-4.46.57-5.89.57-.91,0-1.55-.27-1.92-.8-.38-.53-.57-1.47-.57-2.83v-6.23c-2.11,2.95-4.72,5.32-7.81,7.13-3.09,1.81-6.6,2.72-10.53,2.72-5.06,0-9-1.29-11.83-3.86Z"/>
            <path class="cls-1" d="M757.3,303.71c-4.94-2.26-8.93-5.6-11.94-10.02-3.02-4.41-4.53-9.75-4.53-16.01,0-6.72,1.57-12.38,4.7-16.98,3.13-4.61,7.26-8.06,12.4-10.36,5.13-2.3,10.68-3.45,16.64-3.45,5.21,0,9.7.7,13.47,2.09,3.77,1.39,6.66,3.26,8.66,5.6,2,2.34,3,4.91,3,7.69,0,2.04-.6,3.7-1.81,4.98-1.21,1.28-2.79,1.92-4.76,1.92-2.19,0-3.94-.62-5.26-1.87-1.32-1.25-2.74-3.04-4.25-5.37-1.51-2.34-2.9-4.12-4.19-5.32-1.29-1.21-2.95-1.81-4.98-1.81-3.85,0-6.98,1.72-9.4,5.15-2.42,3.44-3.62,8.29-3.62,14.55,0,5.43.91,9.94,2.72,13.52,1.81,3.59,4.21,6.23,7.19,7.93,2.98,1.7,6.24,2.55,9.79,2.55,2.72,0,5.3-.53,7.75-1.59,2.45-1.05,4.47-2.26,6.05-3.61,1.74-1.28,2.9-1.74,3.51-1.37.23.23.34.53.34.91,0,.6-.3,1.32-.9,2.15-2.49,3.7-5.66,6.64-9.51,8.83-3.85,2.19-8.94,3.29-15.28,3.29-5.58,0-10.84-1.13-15.79-3.4Z"/>
            <path class="cls-1" d="M820.01,303.71c-4.94-2.26-8.94-5.6-12-10.02-3.06-4.41-4.59-9.75-4.59-16.01,0-6.79,1.55-12.49,4.64-17.1,3.09-4.6,7.21-8.03,12.34-10.3,5.13-2.27,10.71-3.39,16.75-3.39,4.6,0,8.87.73,12.79,2.2,3.93,1.47,7.06,3.57,9.4,6.28,2.34,2.71,3.51,5.88,3.51,9.51,0,4.38-1.63,7.74-4.87,10.07-3.24,2.34-8.11,3.51-14.6,3.51h-18.79c.45,6.56,2.45,11.5,6,14.83,3.55,3.32,7.77,4.98,12.68,4.98,3.17,0,5.85-.44,8.04-1.31,2.19-.86,4.26-2.09,6.23-3.67,1.81-1.28,3.05-1.66,3.74-1.13.3.3.45.64.45,1.01,0,.53-.3,1.21-.91,2.04-5.43,7.92-13.73,11.89-24.9,11.89-5.66,0-10.97-1.13-15.9-3.4ZM834.44,273.27c3.47,0,6.18-.84,8.15-2.49,1.96-1.66,2.94-3.92,2.94-6.79,0-2.56-.75-4.68-2.26-6.34-1.51-1.66-3.55-2.49-6.11-2.49-3.48,0-6.38,1.49-8.72,4.47-2.34,2.98-3.66,7.53-3.96,13.64h9.96Z"/>
          </g>
          <g>
            <path class="cls-1" d="M896.7,306.77c-2.04.22-4,.34-5.88.34s-2.95-.84-2.95-2.49c0-.68.25-1.3.73-1.87.49-.57,1.23-1.23,2.21-1.98,1.66-1.28,2.92-2.51,3.79-3.68.86-1.17,1.3-2.74,1.3-4.7v-50.82c0-1.96-.44-3.55-1.3-4.76-.87-1.2-2.13-2.44-3.79-3.73-1.13-.99-1.91-1.7-2.32-2.16-.41-.46-.62-1.02-.62-1.7,0-1.65.98-2.49,2.95-2.49.83,0,2.6.08,5.32.23,2.04.22,3.92.33,5.66.33h32.48c8.45,0,14.98,1.97,19.58,5.89,4.6,3.92,6.9,9.69,6.9,17.31s-2.36,13.29-7.08,16.98c-4.72,3.7-11.49,5.55-20.32,5.55h-16.18v19.25c0,1.96.43,3.55,1.3,4.76.86,1.21,2.13,2.45,3.79,3.74,1.13.98,1.91,1.69,2.32,2.15.41.46.62,1.02.62,1.7,0,1.65-.98,2.49-2.94,2.49-.83,0-2.6-.08-5.32-.23-2.04-.22-3.93-.33-5.66-.33h-9.51c-.99,0-2.68.07-5.1.22ZM925.56,266.48c4.91,0,8.43-1.15,10.58-3.46,2.15-2.3,3.23-6.39,3.23-12.28,0-4.45-.47-7.89-1.42-10.31s-2.4-4.11-4.36-5.09c-1.96-.98-4.6-1.47-7.92-1.47h-8.49v32.6h8.37Z"/>
            <path class="cls-1" d="M970.95,306.88c-2.26.15-3.85.23-4.75.23-.98,0-1.7-.21-2.15-.62-.45-.42-.68-1.04-.68-1.87,0-.6.15-1.15.46-1.64.3-.49.62-.92.96-1.3s.58-.64.73-.79c1.13-1.13,2-2.21,2.6-3.22.6-1.02.91-2.36.91-4.02v-27.05c0-1.96-.26-3.49-.79-4.58-.53-1.1-1.29-2.21-2.27-3.35-1.05-1.05-1.58-2-1.58-2.83,0-.91.44-1.68,1.31-2.32.86-.64,2.13-.99,3.79-1.08,2.04-.07,3.83-.32,5.38-.73,1.55-.41,3.53-1.07,5.94-1.98,2.49-1.06,4.41-1.58,5.77-1.58.91,0,1.57.26,1.98.79.41.53.62,1.47.62,2.83v5.78c2.04-2.8,4.54-5.06,7.53-6.79,2.98-1.74,6.28-2.6,9.9-2.6,3.17,0,5.7.75,7.58,2.26,1.89,1.51,2.83,3.62,2.83,6.34,0,2.27-.59,4.06-1.75,5.38-1.17,1.32-2.77,1.98-4.81,1.98-1.28,0-2.39-.26-3.34-.79s-1.98-1.32-3.11-2.38c-1.06-.98-2.04-1.74-2.95-2.27-.9-.52-1.96-.79-3.17-.79-3.39,0-6.3,2.16-8.71,6.45v29.32c0,1.66.3,3,.9,4.02.6,1.01,1.47,2.09,2.61,3.22.15.15.43.47.85.96.42.49.74.95.97,1.36.22.42.34.89.34,1.42,0,1.65-.95,2.49-2.83,2.49-1.06,0-2.64-.08-4.76-.23-1.89-.22-4.11-.33-6.68-.33h-3.06c-2.56,0-4.75.11-6.57.33Z"/>
            <path class="cls-1" d="M1034.96,303.6c-5.1-2.34-9.17-5.79-12.22-10.35-3.06-4.57-4.59-10.09-4.59-16.59s1.57-11.54,4.7-16.08c3.13-4.53,7.24-7.94,12.34-10.24,5.1-2.3,10.55-3.45,16.36-3.45s11.07,1.14,16.02,3.45c4.94,2.3,8.92,5.7,11.94,10.18,3.02,4.5,4.53,9.87,4.53,16.13s-1.47,12.02-4.41,16.59c-2.94,4.56-6.89,8.01-11.83,10.35-4.94,2.34-10.36,3.51-16.24,3.51s-11.49-1.17-16.58-3.51ZM1042.6,293.64c2.11,3.77,5.09,5.66,8.94,5.66s6.58-1.85,8.43-5.55c1.85-3.69,2.77-9.51,2.77-17.42,0-6.95-.98-12.29-2.94-16.02-1.97-3.74-4.72-5.6-8.26-5.6s-6.55,1.91-8.77,5.72c-2.23,3.81-3.34,9.12-3.34,15.91,0,7.77,1.05,13.54,3.17,17.31Z"/>
            <path class="cls-1" d="M1126.82,306.31c-.38-.53-.57-1.47-.57-2.83v-1.7h-.68c-.99,1.51-2.64,2.78-4.98,3.79-2.34,1.02-5.02,1.53-8.04,1.53-3.77,0-7.49-.99-11.15-2.95-3.66-1.96-6.71-5.15-9.17-9.56-2.45-4.41-3.68-10.09-3.68-17.04s1.32-12.82,3.96-17.42c2.64-4.61,5.91-7.96,9.79-10.07,3.89-2.12,7.79-3.17,11.72-3.17,2.71,0,4.96.24,6.73.73s3.34,1.3,4.7,2.43h.79v-8.72c0-1.81-.28-3.24-.85-4.3s-1.3-2.04-2.21-2.95c-.38-.46-.72-.88-1.02-1.3-.3-.41-.46-.85-.46-1.3,0-.83.41-1.54,1.25-2.15s2.08-.95,3.74-1.02c2.04-.07,3.83-.3,5.38-.68,1.55-.38,3.49-.99,5.83-1.81,1.05-.38,2.1-.72,3.11-1.02,1.02-.3,1.94-.45,2.77-.45.91,0,1.57.26,1.98.79s.62,1.39.62,2.6v60.9c0,2.8.28,4.93.85,6.39.57,1.48,1.34,2.93,2.32,4.36.91,1.29,1.36,2.38,1.36,3.29s-.38,1.56-1.13,1.98c-.76.41-2.04.7-3.85.85-.15,0-2.68.26-7.59.79-4.6.53-7.81.8-9.62.8-.91,0-1.55-.27-1.92-.8ZM1112.33,294.09c1.66,3.55,3.96,5.32,6.9,5.32,1.97,0,3.55-.99,4.76-2.99,1.2-2,1.96-4.85,2.26-8.55v-27.73c-.46-1.81-1.21-3.21-2.26-4.19-1.06-.98-2.3-1.47-3.74-1.47-6.95,0-10.42,7.81-10.42,23.43,0,7.25.83,12.64,2.49,16.19Z"/>
            <path class="cls-1" d="M1162.53,303.26c-2.83-2.56-4.25-6.64-4.25-12.22v-29.43c0-1.66-.3-3-.91-4.01-.6-1.02-1.47-2.1-2.6-3.23-.15-.15-.44-.46-.85-.96s-.73-.95-.96-1.36c-.23-.42-.34-.89-.34-1.42,0-.83.23-1.45.68-1.86.46-.42,1.17-.62,2.15-.62.91,0,2.49.07,4.75.22,1.81.22,4,.33,6.57.33h10.53c1.43,0,2.15.57,2.15,1.7,0,.22-.17.87-.51,1.92-.34,1.06-.51,2.23-.51,3.51v34.07c0,2.65.57,4.65,1.7,6,1.13,1.36,2.72,2.04,4.75,2.04,1.36,0,2.72-.57,4.07-1.7s2.6-2.64,3.74-4.53v-30.11c0-1.66-.3-3-.91-4.01-.6-1.02-1.47-2.1-2.6-3.23-.15-.15-.44-.46-.85-.96s-.73-.95-.96-1.36c-.23-.42-.34-.89-.34-1.42,0-.83.23-1.45.68-1.86.46-.42,1.17-.62,2.15-.62s2.53.07,4.64.22c1.96.22,4.19.33,6.68.33h10.53c1.43,0,2.15.57,2.15,1.7,0,.22-.17.87-.51,1.92-.34,1.06-.51,2.23-.51,3.51v32.82c0,2.8.28,4.93.85,6.39.57,1.48,1.34,2.93,2.32,4.36.91,1.29,1.36,2.38,1.36,3.29s-.4,1.58-1.19,2.04c-.79.46-2.06.72-3.79.79-3.85.07-7.62.42-11.32,1.02-2.49.37-4.46.57-5.89.57-.91,0-1.55-.27-1.92-.8-.38-.53-.57-1.47-.57-2.83v-6.23c-2.11,2.95-4.72,5.32-7.81,7.13-3.09,1.81-6.6,2.72-10.53,2.72-5.06,0-9-1.29-11.83-3.86Z"/>
            <path class="cls-1" d="M1237.24,303.71c-4.94-2.26-8.93-5.6-11.95-10.02-3.02-4.41-4.53-9.75-4.53-16.01,0-6.72,1.57-12.38,4.7-16.98,3.13-4.61,7.26-8.06,12.4-10.36,5.13-2.3,10.67-3.45,16.64-3.45,5.2,0,9.69.7,13.47,2.09,3.77,1.39,6.66,3.26,8.66,5.6s3,4.91,3,7.69c0,2.04-.6,3.7-1.81,4.98-1.21,1.28-2.79,1.92-4.75,1.92-2.19,0-3.94-.62-5.26-1.87-1.32-1.25-2.74-3.04-4.24-5.37-1.51-2.34-2.91-4.12-4.19-5.32-1.28-1.21-2.94-1.81-4.98-1.81-3.85,0-6.98,1.72-9.4,5.15-2.42,3.44-3.62,8.29-3.62,14.55,0,5.43.91,9.94,2.71,13.52,1.81,3.59,4.21,6.23,7.19,7.93,2.98,1.7,6.24,2.55,9.79,2.55,2.71,0,5.3-.53,7.75-1.59,2.45-1.05,4.47-2.26,6.06-3.61,1.73-1.28,2.9-1.74,3.51-1.37.23.23.34.53.34.91,0,.6-.3,1.32-.91,2.15-2.49,3.7-5.66,6.64-9.51,8.83-3.85,2.19-8.94,3.29-15.28,3.29-5.58,0-10.85-1.13-15.79-3.4Z"/>
            <path class="cls-1" d="M1291.57,303.04c-2.98-2.72-4.47-7.09-4.47-13.13v-29.54c0-1.74-.25-3.06-.73-3.97-.49-.9-1.19-1.77-2.1-2.6-.38-.37-.72-.75-1.02-1.13-.3-.37-.46-.79-.46-1.25,0-.75.28-1.38.85-1.87.57-.48,1.34-.73,2.32-.73,1.58,0,3.15-.7,4.7-2.09,1.55-1.39,3.34-3.37,5.38-5.95,1.74-2.18,3.17-3.81,4.3-4.86,1.13-1.06,2.19-1.59,3.17-1.59,1.36,0,2.32.47,2.89,1.41.56.95.85,2.43.85,4.48v8.71h11.1c1.28,0,2.18.36,2.71,1.08.53.72.79,1.98.79,3.79,0,2.87-.98,4.3-2.95,4.3-.83,0-1.52-.15-2.09-.46-.57-.3-1.26-.79-2.1-1.47-.83-.68-1.66-1.23-2.49-1.64-.83-.41-1.81-.62-2.94-.62h-2.04v35.66c0,2.95.39,4.98,1.19,6.11.79,1.13,1.98,1.7,3.56,1.7,1.28,0,2.63-.36,4.02-1.08,1.4-.72,2.66-1.52,3.79-2.43.75-.53,1.4-.79,1.92-.79.6,0,.91.3.91.9,0,.53-.41,1.4-1.25,2.6-2.26,3.18-4.86,5.72-7.81,7.65-2.94,1.92-6.49,2.88-10.64,2.88-4.6,0-8.39-1.36-11.37-4.07Z"/>
            <path class="cls-1" d="M1340.98,305.76c-4.07-.9-7.23-1.96-9.46-3.17-2.23-1.21-3.42-2.27-3.56-3.17-1.21-6.41-1.81-10.9-1.81-13.47,0-.45.12-.81.34-1.07.23-.27.57-.4,1.02-.4.75,0,1.62.36,2.6,1.08.98.72,2.34,1.83,4.07,3.34,3.92,3.33,7.6,5.97,11.04,7.93,3.43,1.96,7.3,2.95,11.6,2.95,2.11,0,3.75-.44,4.93-1.31,1.17-.86,1.75-2.09,1.75-3.67,0-2.27-1.26-4.28-3.79-6.06-2.53-1.77-6.39-3.87-11.6-6.28-4.45-2.11-8.03-3.98-10.75-5.6-2.72-1.63-5.06-3.57-7.02-5.83-1.97-2.27-2.95-4.87-2.95-7.82,0-4.98,2.64-8.9,7.92-11.77,5.28-2.86,12.49-4.29,21.62-4.29,6.26,0,11.28.5,15.06,1.52,3.77,1.02,5.88,2.14,6.34,3.34,2.19,5.97,3.32,10.23,3.4,12.8,0,1.06-.46,1.58-1.36,1.58-.83,0-1.77-.32-2.83-.96-1.05-.64-2.49-1.68-4.3-3.11-3.39-2.49-6.45-4.45-9.17-5.89-2.71-1.43-5.66-2.15-8.83-2.15-2.11,0-3.7.36-4.75,1.08-1.06.72-1.58,1.71-1.58,2.99,0,1.89,1.13,3.59,3.4,5.1,2.26,1.51,5.73,3.28,10.41,5.32,4.68,2.11,8.49,4.01,11.43,5.72,2.95,1.7,5.47,3.81,7.59,6.34,2.11,2.53,3.17,5.49,3.17,8.88,0,5.44-2.66,9.7-7.98,12.8-5.32,3.09-12.51,4.64-21.56,4.64-5.51,0-10.3-.45-14.37-1.36Z"/>
          </g>
        </g>
      </g>
      <g>
        <path class="cls-1" d="M221.39,130.35c16.28,0,29.53-13.25,29.53-29.53s-13.25-29.53-29.53-29.53-29.53,13.25-29.53,29.53,13.25,29.53,29.53,29.53Z"/>
        <path class="cls-1" d="M221.39,183.59c-27.62,0-53.56,10.75-73.04,30.26-19.53,19.53-30.28,45.47-30.28,73.06,0,32.92,15.89,64.14,42.51,83.52,1.78,1.29,4.4,1.43,6.83.36,6.81-3,13.79-5.41,20.93-7.22-14.07-3.73-23.38-11.91-25.27-13.62-20.5-18.57-19.98-44.26-19.84-48.01,21.98,10.93,38.99,11.73,50,10.71,30.58-2.83,44.77-22.46,74.6-20.63,14.15.87,25.24,6.16,31.77,9.92-2.79.65-6.9,1.82-11.53,3.97-18.56,8.61-22.38,22.2-35.71,35.71-2.76,2.8-11.72,11.88-24.82,17.98,16.6.74,32.67,4.49,47.85,11.19,2.46,1.09,5.07.93,6.94-.43,5.7-4.16,11.02-8.96,15.8-14.26,17.15-18.97,26.59-43.54,26.59-69.18,0-27.58-10.75-53.52-30.27-73.05-19.48-19.52-45.42-30.27-73.05-30.27Z"/>
        <path class="cls-1" d="M221.39,0C99.12,0,0,99.12,0,221.39s99.12,221.39,221.39,221.39,221.39-99.12,221.39-221.39S343.66,0,221.39,0ZM320.96,376.71c-6.19,6.86-13.09,13.09-20.5,18.5-10.68,7.79-25.06,9.22-37.51,3.73-13.1-5.78-27.08-8.72-41.56-8.72s-28.46,2.93-41.56,8.72c-5.04,2.22-10.39,3.31-15.67,3.31-7.76,0-15.38-2.35-21.69-6.95-34.55-25.15-55.17-65.68-55.17-108.4,0-35.81,13.95-69.48,39.29-94.81,19.08-19.13,42.96-31.76,68.94-36.81-20.34-9.7-34.44-30.47-34.44-54.46,0-33.25,27.05-60.31,60.31-60.31s60.3,27.05,60.3,60.31c0,24-14.09,44.76-34.44,54.46,25.98,5.05,49.86,17.68,68.96,36.81,25.32,25.33,39.27,59,39.27,94.8,0,33.28-12.26,65.18-34.53,89.81Z"/>
      </g>
    </g>
  </g>
</svg>