<?xml version="1.0" encoding="utf-8"?>
<!-- Generator: Adobe Illustrator 28.2.0, SVG Export Plug-In . SVG Version: 6.00 Build 0)  -->
<svg version="1.1" id="Layer_1" xmlns="http://www.w3.org/2000/svg" xmlns:xlink="http://www.w3.org/1999/xlink" x="0px" y="0px"
	 viewBox="0 0 55.2 55.3" style="enable-background:new 0 0 55.2 55.3;" xml:space="preserve">
<style type="text/css">
	.st0{fill:#B21807;}
</style>
<g>
	<g>
		<path class="st0" d="M27.6,20.3c1.3,0,2.4-1.1,2.4-2.4c0-1.3-1.1-2.4-2.4-2.4c-1.3,0-2.4,1.1-2.4,2.4
			C25.2,19.2,26.3,20.3,27.6,20.3z"/>
		<path class="st0" d="M27.6,24.6c-2.2,0-4.3,0.9-5.9,2.4c-1.6,1.6-2.4,3.7-2.4,5.9c0,2.7,1.3,5.2,3.4,6.7c0.1,0.1,0.4,0.1,0.6,0
			c0.5-0.2,1.1-0.4,1.7-0.6c-1.1-0.3-1.9-1-2-1.1c-1.7-1.5-1.6-3.6-1.6-3.9c1.8,0.9,3.1,0.9,4,0.9c2.5-0.2,3.6-1.8,6-1.7
			c1.1,0.1,2,0.5,2.6,0.8c-0.2,0.1-0.6,0.1-0.9,0.3c-1.5,0.7-1.8,1.8-2.9,2.9c-0.2,0.2-0.9,1-2,1.5c1.3,0.1,2.6,0.4,3.9,0.9
			c0.2,0.1,0.4,0.1,0.6,0c0.5-0.3,0.9-0.7,1.3-1.2c1.4-1.5,2.1-3.5,2.1-5.6c0-2.2-0.9-4.3-2.4-5.9C31.9,25.5,29.8,24.6,27.6,24.6z"
			/>
		<path class="st0" d="M27.6,9.8c-9.9,0-17.9,8-17.9,17.9c0,9.9,8,17.9,17.9,17.9s17.9-8,17.9-17.9C45.4,17.8,37.4,9.8,27.6,9.8z
			 M35.6,40.2c-0.5,0.6-1.1,1.1-1.7,1.5c-0.9,0.6-2,0.7-3,0.3c-1.1-0.5-2.2-0.7-3.4-0.7c-1.2,0-2.3,0.2-3.4,0.7
			c-0.4,0.2-0.8,0.3-1.3,0.3c-0.6,0-1.2-0.2-1.7-0.6c-2.8-2-4.5-5.3-4.5-8.7c0-2.9,1.1-5.6,3.2-7.6c1.5-1.5,3.5-2.6,5.6-3
			c-1.6-0.8-2.8-2.5-2.8-4.4c0-2.7,2.2-4.9,4.9-4.9c2.7,0,4.9,2.2,4.9,4.9c0,1.9-1.1,3.6-2.8,4.4c2.1,0.4,4,1.4,5.6,3
			c2,2,3.2,4.8,3.2,7.6C38.4,35.6,37.4,38.2,35.6,40.2z"/>
	</g>
	<g>
		<path class="st0" d="M27.6,55.1c-15.1,0-27.5-12.3-27.5-27.5S12.4,0.2,27.6,0.2C42.7,0.2,55,12.5,55,27.6S42.7,55.1,27.6,55.1z
			 M27.6,0.5c-15,0-27.1,12.2-27.1,27.1s12.2,27.1,27.1,27.1s27.1-12.2,27.1-27.1S42.5,0.5,27.6,0.5z"/>
	</g>
	<g>
		<path class="st0" d="M7.1,28.1c0,0.1,0,0.2,0,0.4c0,0.1,0,0.1,0,0.1c0,0-0.1,0-0.1,0c0,0-0.1,0-0.1,0c0,0-0.1-0.1-0.1-0.1
			c-0.1-0.1-0.1-0.2-0.2-0.2c-0.1-0.1-0.2-0.1-0.3-0.1l-3.5-0.1l0,0.3c0,0.2,0,0.3,0.1,0.4C3,28.9,3.1,29,3.3,29.2
			c0.1,0.1,0.2,0.2,0.2,0.2c0,0,0.1,0.1,0.1,0.2c0,0.1,0,0.1-0.1,0.1c-0.1,0-0.2,0-0.4-0.1c-0.2-0.1-0.4-0.1-0.6-0.1
			c-0.1,0-0.2,0-0.2-0.1c0,0,0-0.1,0-0.2l0.1-3.5c0-0.1,0-0.2,0.1-0.2c0,0,0.1-0.1,0.2-0.1c0.2,0,0.4,0,0.6-0.1
			c0.2,0,0.3-0.1,0.4-0.1c0,0,0,0,0.1,0c0,0,0,0,0,0.1c0,0.1,0,0.1-0.1,0.2c-0.1,0.1-0.1,0.1-0.2,0.2C3.1,25.9,3,26,2.9,26.1
			c-0.1,0.1-0.2,0.3-0.2,0.4l0,0.3l3.5,0.1c0.1,0,0.2,0,0.3-0.1c0.1-0.1,0.2-0.1,0.2-0.2c0.1-0.1,0.1-0.1,0.1-0.1c0,0,0.1,0,0.1,0
			c0.1,0,0.1,0.1,0.1,0.2l0,0.3c0,0.1,0,0.2,0,0.3l0,0.6C7.1,27.9,7.1,28,7.1,28.1z"/>
		<path class="st0" d="M7.2,25.1c0,0.1,0,0.2,0,0.3c0,0.1-0.1,0.2-0.2,0.1c0,0-0.1,0-0.1,0c0,0,0,0-0.1-0.1c0,0,0,0,0-0.1
			c-0.1-0.1-0.1-0.1-0.2-0.2c-0.1,0-0.1-0.1-0.2-0.1l-3-0.6c-0.1,0-0.2,0-0.3,0c-0.1,0-0.1,0.1-0.2,0.1c0,0-0.1,0-0.1,0
			c0,0-0.1,0-0.1,0c0,0-0.1,0-0.1-0.1c0-0.1,0-0.1,0-0.2c0-0.1,0-0.2,0-0.3c0-0.1,0-0.2,0-0.4c0-0.1,0-0.1,0-0.2c0-0.1,0-0.1,0-0.2
			c0-0.1,0-0.1,0.1-0.1c0,0,0.1,0,0.2,0l1.8,0.4l0,0c-0.2-0.1-0.3-0.3-0.4-0.5c-0.1-0.2-0.1-0.4-0.1-0.7c0.1-0.7,0.5-0.9,1.1-0.8
			l1.7,0.4c0.1,0,0.2,0,0.2,0c0.1,0,0.1-0.1,0.2-0.1c0,0,0,0,0.1,0c0,0,0.1,0,0.1,0c0,0,0.1,0,0.1,0c0.1,0,0.1,0.1,0.1,0.2
			c0,0.1,0,0.1-0.1,0.3c0,0.1-0.1,0.2-0.1,0.4l0,0.2c0,0.2-0.1,0.3-0.1,0.4c0,0.1,0,0.2,0,0.3c0,0.1-0.1,0.2-0.2,0.1
			c0,0-0.1,0-0.1,0c0,0,0,0-0.1-0.1c0,0,0,0,0-0.1c-0.1-0.1-0.1-0.1-0.2-0.2C7,23,6.9,23,6.8,23l-1.7-0.3c-0.3-0.1-0.5,0-0.5,0.2
			c0,0.1,0,0.2,0.1,0.4c0.1,0.1,0.3,0.2,0.5,0.3l1.3,0.3c0.1,0,0.2,0,0.2,0c0.1,0,0.1-0.1,0.2-0.1c0,0,0,0,0.1,0c0,0,0.1,0,0.1,0
			c0,0,0.1,0,0.1,0c0.1,0,0.1,0.1,0.1,0.2c0,0.1,0,0.1-0.1,0.3c0,0.1-0.1,0.2-0.1,0.4l0,0.2C7.3,24.8,7.2,25,7.2,25.1z"/>
		<path class="st0" d="M8.2,20.6C8,20.9,7.7,21,7.4,21.1c-0.3,0.1-0.6,0-1-0.1c-0.4-0.2-0.7-0.4-0.9-0.6c-0.2-0.3-0.3-0.6-0.3-0.9
			c0-0.3,0.1-0.7,0.2-1c0.1-0.3,0.2-0.5,0.4-0.7c0.2-0.2,0.4-0.3,0.6-0.4c0.2-0.1,0.4-0.1,0.6,0c0.2,0.1,0.4,0.3,0.5,0.5
			c0.1,0.2,0,0.5-0.1,0.9l-0.4,1.1c0.4,0.1,0.7,0.1,1,0c0.3-0.1,0.5-0.3,0.6-0.6c0.1-0.2,0.1-0.3,0.1-0.5c0-0.1,0-0.3-0.1-0.4
			c0-0.1,0-0.2,0-0.2c0,0,0,0,0.1,0c0,0,0.1,0,0.1,0.1c0.3,0.5,0.4,1,0.1,1.7C8.6,20.2,8.5,20.4,8.2,20.6z M6.8,19.2
			c0.1-0.2,0.1-0.4,0-0.5c0-0.1-0.2-0.3-0.3-0.3c-0.1-0.1-0.3-0.1-0.4,0c-0.1,0-0.2,0.1-0.3,0.3c-0.1,0.2-0.1,0.4,0.1,0.6
			c0.1,0.2,0.3,0.4,0.7,0.5L6.8,19.2z"/>
		<path class="st0" d="M10.1,16.8c-0.1,0.1-0.1,0.2-0.2,0.3c-0.1,0.1-0.1,0.1-0.2,0c0,0-0.1-0.1-0.1-0.1c0,0,0-0.1,0-0.2
			c0-0.1,0-0.2,0-0.3c0-0.1-0.1-0.2-0.2-0.2L7,14.4c-0.1-0.1-0.2-0.1-0.3-0.1c-0.1,0-0.2,0-0.3,0c-0.1,0-0.2,0-0.2,0
			c0,0-0.1,0-0.1,0c-0.1-0.1-0.1-0.1,0-0.2c0,0,0.1-0.1,0.2-0.2c0.1-0.1,0.2-0.2,0.2-0.3l1.2-1.6c0.3-0.4,0.6-0.6,1-0.7
			c0.4-0.1,0.7,0,1,0.3c0.2,0.2,0.4,0.4,0.5,0.7c0.1,0.3,0,0.5-0.1,0.7c0.1-0.1,0.3-0.1,0.5-0.1c0.2,0,0.4,0.1,0.7,0.2
			c0.7,0.2,1.1,0.3,1.3,0.1c0.1,0,0.1,0,0.2,0c0,0,0,0.1,0,0.2l-0.3,0.4c-0.2,0.2-0.3,0.4-0.5,0.5c-0.2,0.1-0.3,0.1-0.5,0.1
			c-0.2,0-0.4-0.1-0.7-0.1c-0.4-0.1-0.7-0.2-0.9-0.2c-0.2,0-0.4,0-0.5,0.2l-0.2,0.2l1.1,0.8c0.1,0.1,0.2,0.1,0.3,0.1
			c0.1,0,0.2,0,0.3,0c0.1,0,0.2,0,0.2,0c0,0,0.1,0,0.1,0c0.1,0.1,0.1,0.1,0,0.2c0,0-0.1,0.1-0.2,0.2c-0.1,0.1-0.2,0.2-0.2,0.3
			l-0.3,0.5C10.3,16.6,10.2,16.6,10.1,16.8z M9.1,13.8c0.2-0.2,0.2-0.4,0.2-0.6c0-0.2-0.1-0.4-0.4-0.5c-0.2-0.1-0.4-0.2-0.5-0.3
			c-0.1,0-0.3,0-0.4,0c-0.1,0.1-0.2,0.2-0.3,0.3l-0.3,0.4l1.4,1.1L9.1,13.8z"/>
		<path class="st0" d="M13.4,12.7c-0.3,0.1-0.6,0.1-0.9,0c-0.3-0.1-0.6-0.3-0.8-0.5c-0.3-0.3-0.4-0.6-0.5-1c0-0.3,0-0.7,0.1-1
			c0.1-0.3,0.3-0.6,0.6-0.8c0.2-0.2,0.4-0.3,0.7-0.4C12.8,9,13.1,8.9,13.3,9c0.2,0,0.4,0.1,0.5,0.3C14,9.5,14,9.7,14,9.9
			c-0.1,0.2-0.2,0.5-0.5,0.7l-0.9,0.7c0.3,0.3,0.6,0.4,0.9,0.4c0.3,0,0.6-0.1,0.8-0.3c0.1-0.1,0.2-0.3,0.3-0.4
			c0.1-0.1,0.1-0.3,0.1-0.4c0-0.1,0.1-0.2,0.1-0.2c0,0,0,0,0.1,0c0,0,0,0.1,0,0.1c0.1,0.6-0.1,1.1-0.7,1.5
			C14,12.5,13.7,12.6,13.4,12.7z M12.9,10.8c0.2-0.1,0.2-0.3,0.3-0.4c0-0.2,0-0.3-0.1-0.4c-0.1-0.1-0.2-0.2-0.4-0.2
			c-0.1,0-0.3,0-0.4,0.1C12.1,10,12,10.2,12,10.4c0,0.2,0.1,0.5,0.4,0.8L12.9,10.8z"/>
		<path class="st0" d="M15.5,10.9c-0.2,0-0.4-0.2-0.6-0.4c-0.1-0.2-0.2-0.5-0.1-0.7c0.1-0.3,0.2-0.5,0.4-0.8
			c0.2-0.3,0.5-0.5,0.8-0.7l-0.2-0.4c-0.1-0.2-0.2-0.3-0.4-0.4c-0.1-0.1-0.2-0.1-0.4,0C15.1,7.5,15,7.6,15,7.7c0,0.1,0,0.2,0,0.4
			c0,0.2,0,0.3,0,0.4c0,0.1-0.1,0.2-0.2,0.3c-0.1,0.1-0.2,0.1-0.3,0.1c-0.1,0-0.2-0.1-0.2-0.2c-0.1-0.2-0.1-0.5,0-0.7
			c0.1-0.3,0.4-0.5,0.8-0.7c0.4-0.3,0.8-0.4,1.2-0.4c0.4,0,0.7,0.2,0.9,0.6l0.6,1c0.1,0.1,0.2,0.2,0.2,0.3C18,8.9,18.1,8.9,18.2,9
			c0,0,0.1,0,0.1,0.1c0,0,0.1,0,0.1,0.1c0,0,0,0.1,0,0.1s-0.1,0.1-0.2,0.2l-0.4,0.3c-0.2,0.2-0.3,0.3-0.4,0.3c0,0-0.1,0-0.1,0
			c0,0-0.1-0.1-0.1-0.1L17,9.7c0,0.2-0.1,0.4-0.2,0.5c-0.1,0.2-0.3,0.3-0.5,0.5C16,10.9,15.8,10.9,15.5,10.9z M16.1,10
			c0.1,0,0.2,0,0.4-0.1c0.1-0.1,0.2-0.1,0.2-0.2c0-0.1,0.1-0.2,0.1-0.3l-0.5-0.9c-0.2,0.2-0.4,0.4-0.5,0.6c-0.1,0.2-0.1,0.4,0.1,0.6
			C15.9,9.9,16,10,16.1,10z"/>
		<path class="st0" d="M18.9,9.1c-0.1,0.1-0.2,0.1-0.3,0.1c-0.1,0-0.2,0-0.2-0.1c0,0,0-0.1,0-0.1c0,0,0-0.1,0-0.1c0,0,0,0,0-0.1
			c0-0.1,0.1-0.2,0.1-0.2s0-0.2,0-0.2l-1.2-2.8c0-0.1-0.1-0.2-0.2-0.2c-0.1,0-0.1-0.1-0.2-0.1c0,0-0.1,0-0.1,0c0,0,0,0-0.1-0.1
			c0,0,0-0.1,0-0.1c0-0.1,0.1-0.1,0.2-0.1c0.1-0.1,0.2-0.1,0.3-0.2c0.1-0.1,0.2-0.1,0.3-0.2c0,0,0.1-0.1,0.1-0.1
			c0,0,0.1-0.1,0.1-0.1c0.1,0,0.1,0,0.1,0c0,0,0.1,0.1,0.1,0.1l1.6,3.6c0,0.1,0.1,0.2,0.1,0.2c0.1,0,0.1,0.1,0.2,0.1c0,0,0,0,0.1,0
			c0,0,0.1,0,0.1,0.1c0,0,0,0,0.1,0.1c0,0.1,0,0.2-0.1,0.2c0,0-0.1,0.1-0.3,0.1c-0.1,0-0.2,0.1-0.4,0.1l-0.2,0.1
			C19.1,9,19,9.1,18.9,9.1z"/>
		<path class="st0" d="M21.9,7.9C21.8,8,21.7,8,21.6,8c-0.1,0-0.2,0-0.2-0.1c0,0,0-0.1,0-0.1c0,0,0.1-0.1,0.1-0.1
			c0.1-0.1,0.1-0.2,0.2-0.3c0-0.1,0-0.2,0-0.3l-0.6-3C21,4,21,3.9,20.9,3.8c-0.1-0.1-0.2-0.1-0.3-0.2c-0.1,0-0.1-0.1-0.2-0.1
			c0,0,0-0.1-0.1-0.1c0-0.1,0-0.2,0.1-0.2c0,0,0.2,0,0.3-0.1c0.1,0,0.2,0,0.3,0l2.9-0.6c0.1,0,0.2,0,0.2,0c0,0,0.1,0.1,0.1,0.2
			c0,0.2,0.1,0.3,0.2,0.6c0.1,0.2,0.1,0.3,0.1,0.3c0,0.1,0,0.1-0.1,0.1c-0.1,0-0.1,0-0.2,0c-0.1,0-0.1-0.1-0.2-0.2
			c-0.2-0.2-0.3-0.3-0.5-0.3c-0.1-0.1-0.3-0.1-0.5-0.1l-1.1,0.2l0.4,1.8l0.9-0.2c0.1,0,0.2-0.1,0.2-0.2c0-0.1,0.1-0.2,0.1-0.3
			c0-0.1,0-0.2,0.1-0.2c0,0,0-0.1,0.1-0.1c0.1,0,0.1,0,0.2,0.2c0,0.1,0,0.2,0,0.3c0,0.1,0,0.2,0,0.3c0,0.1,0,0.2,0.1,0.3
			c0,0.1,0.1,0.2,0.1,0.4c0,0.1,0,0.2-0.1,0.2c0,0-0.1,0-0.1,0c0,0-0.1-0.1-0.1-0.2c-0.1-0.1-0.2-0.2-0.2-0.3
			c-0.1-0.1-0.2-0.1-0.3-0.1l-0.9,0.2l0.3,1.3C23,6.9,23,7,23.1,7.1c0.1,0.1,0.2,0.1,0.3,0.2c0.1,0,0.1,0.1,0.2,0.1
			c0,0,0,0.1,0.1,0.1c0,0.1,0,0.2-0.1,0.2c0,0-0.2,0-0.3,0.1c-0.1,0-0.2,0-0.3,0l-0.6,0.1C22.1,7.9,22,7.9,21.9,7.9z"/>
		<path class="st0" d="M25.4,7.1c-0.2-0.1-0.3-0.4-0.3-0.6c0-0.3,0.1-0.5,0.3-0.7c0.2-0.2,0.4-0.4,0.8-0.5c0.3-0.1,0.7-0.2,1.1-0.2
			l0-0.5c0-0.2,0-0.4-0.1-0.5C27,4,26.9,4,26.7,4c-0.1,0-0.2,0-0.3,0.1c-0.1,0.1-0.1,0.2-0.2,0.3c-0.1,0.2-0.2,0.3-0.2,0.4
			c-0.1,0.1-0.2,0.1-0.3,0.1c-0.1,0-0.2,0-0.3-0.1c-0.1-0.1-0.1-0.2-0.1-0.3c0-0.2,0.1-0.5,0.4-0.6c0.3-0.2,0.6-0.2,1-0.3
			c0.5,0,0.9,0.1,1.2,0.3c0.3,0.2,0.5,0.5,0.5,1l0,1.2c0,0.2,0,0.3,0.1,0.4c0,0.1,0.1,0.2,0.1,0.3c0,0,0,0.1,0.1,0.1
			c0,0,0,0.1,0,0.1c0,0.1,0,0.1-0.1,0.1c0,0-0.1,0-0.2,0.1l-0.5,0.1c-0.2,0-0.4,0.1-0.5,0.1c-0.1,0-0.1,0-0.1,0c0,0,0-0.1,0-0.2
			l0-0.2C27.1,7,27,7.1,26.8,7.2c-0.2,0.1-0.4,0.1-0.7,0.2C25.8,7.3,25.6,7.3,25.4,7.1z M26.4,6.6c0.1,0.1,0.2,0.1,0.3,0.1
			c0.1,0,0.2,0,0.3-0.1c0.1-0.1,0.2-0.1,0.2-0.2l0-1c-0.3,0-0.5,0.1-0.7,0.3c-0.2,0.2-0.3,0.4-0.3,0.6C26.2,6.4,26.3,6.6,26.4,6.6z"
			/>
		<path class="st0" d="M29.1,7.1c-0.1,0-0.2,0-0.3,0c-0.1,0-0.2-0.1-0.1-0.2c0,0,0-0.1,0-0.1s0,0,0.1-0.1c0,0,0,0,0.1,0
			c0.1-0.1,0.1-0.1,0.2-0.2c0-0.1,0.1-0.1,0.1-0.2l0.3-1.6c0-0.1,0-0.2,0-0.3c0-0.1,0-0.1-0.1-0.2c0,0,0-0.1,0-0.1c0,0,0-0.1,0-0.1
			c0-0.1,0-0.1,0.1-0.1c0.1,0,0.1,0,0.2,0c0.1,0,0.2,0,0.3,0c0.1,0,0.2,0,0.4,0c0.2,0,0.3,0,0.4,0c0.1,0,0.1,0,0.1,0.1
			c0,0,0,0.1,0,0.2l-0.1,0.5l0,0c0.1-0.2,0.3-0.3,0.5-0.4C31.5,4,31.7,4,31.9,4.1c0.6,0.1,0.8,0.4,0.8,0.9l0,0
			c0.1-0.2,0.3-0.3,0.5-0.4c0.2-0.1,0.4-0.1,0.7-0.1c0.3,0.1,0.5,0.2,0.7,0.4c0.1,0.2,0.2,0.4,0.1,0.8l-0.3,1.7c0,0.1,0,0.2,0,0.2
			c0,0.1,0.1,0.1,0.1,0.2c0,0,0,0,0,0.1c0,0,0,0.1,0,0.1c0,0,0,0.1,0,0.1c0,0.1-0.1,0.1-0.2,0.1c-0.1,0-0.1,0-0.3-0.1
			C34,8.1,33.9,8,33.8,8l-0.2,0c-0.2,0-0.3-0.1-0.4-0.1c-0.1,0-0.2,0-0.3,0c-0.1,0-0.2-0.1-0.1-0.2c0,0,0-0.1,0-0.1c0,0,0,0,0.1-0.1
			c0,0,0,0,0.1,0c0.1-0.1,0.1-0.1,0.2-0.2c0-0.1,0.1-0.1,0.1-0.2l0.3-1.7c0.1-0.3,0-0.5-0.2-0.5c-0.1,0-0.2,0-0.4,0.1
			c-0.1,0.1-0.2,0.3-0.3,0.5l-0.3,1.4c0,0.1,0,0.2,0,0.2c0,0.1,0.1,0.1,0.1,0.2c0,0,0,0,0,0.1c0,0,0,0.1,0,0.1c0,0,0,0.1,0,0.1
			c0,0.1-0.1,0.1-0.2,0.1c-0.1,0-0.1,0-0.3-0.1c-0.1,0-0.2-0.1-0.4-0.1l-0.2,0c-0.2,0-0.3-0.1-0.4-0.1c-0.1,0-0.2,0-0.3,0
			c-0.1,0-0.2-0.1-0.1-0.2c0,0,0-0.1,0-0.1c0,0,0,0,0.1-0.1c0,0,0,0,0.1,0C31,7,31,7,31.1,6.9c0-0.1,0.1-0.1,0.1-0.2L31.5,5
			c0.1-0.3,0-0.5-0.2-0.5c-0.1,0-0.2,0-0.4,0.1c-0.1,0.1-0.2,0.3-0.3,0.5l-0.3,1.3c0,0.1,0,0.2,0,0.2c0,0.1,0.1,0.1,0.1,0.2
			c0,0,0,0,0,0.1c0,0,0,0.1,0,0.1c0,0,0,0.1,0,0.1c0,0.1-0.1,0.1-0.2,0.1c-0.1,0-0.1,0-0.3-0.1c-0.1,0-0.2-0.1-0.4-0.1l-0.2,0
			C29.4,7.1,29.2,7.1,29.1,7.1z"/>
		<path class="st0" d="M34.9,8.6c-0.1,0-0.2-0.1-0.3-0.1c-0.1,0-0.1-0.1-0.1-0.1c0,0,0-0.1,0-0.1c0,0,0-0.1,0.1-0.1
			c0,0,0.1,0,0.1-0.1c0,0,0,0,0.1,0C34.8,8.1,34.9,8,35,8c0.1,0,0.1-0.1,0.1-0.2l0.6-1.5c0-0.1,0.1-0.2,0.1-0.3c0-0.1,0-0.2,0-0.2
			c0-0.1,0-0.1,0-0.2c0-0.1,0.1-0.1,0.1-0.1c0.1,0,0.1,0,0.2,0c0.1,0,0.2,0.1,0.3,0.1c0.1,0,0.2,0,0.4,0c0.2,0,0.3,0,0.4,0
			c0.1,0,0.1,0.1,0.1,0.1c0,0,0,0.1,0,0.2l-1,2.3c0,0.1-0.1,0.2,0,0.2c0,0.1,0,0.2,0.1,0.2c0,0,0,0,0,0.1c0,0,0,0.1,0,0.1
			c0,0,0,0.1,0,0.1c0,0.1-0.1,0.1-0.2,0.1C36,9,35.9,9,35.8,8.9c-0.1-0.1-0.2-0.1-0.4-0.2l-0.2-0.1C35.2,8.6,35,8.6,34.9,8.6z
			 M36.5,4.7c-0.1-0.2-0.1-0.4,0-0.5c0.1-0.2,0.2-0.3,0.4-0.4c0.2-0.1,0.4-0.1,0.5,0c0.2,0.1,0.3,0.2,0.4,0.4c0.1,0.2,0.1,0.3,0,0.5
			c-0.1,0.2-0.2,0.3-0.4,0.4c-0.2,0.1-0.4,0.1-0.5,0C36.7,5,36.5,4.9,36.5,4.7z"/>
		<path class="st0" d="M36.7,9.3c-0.1-0.1-0.2-0.1-0.3-0.1c-0.1-0.1-0.1-0.1-0.1-0.2c0,0,0-0.1,0.1-0.1c0,0,0.1,0,0.1,0
			c0,0,0,0,0.1,0c0.1,0,0.2-0.1,0.2-0.1c0.1,0,0.1-0.1,0.2-0.2l1.4-2.7c0.1-0.1,0.1-0.2,0.1-0.3c0-0.1,0-0.1,0-0.2c0,0,0-0.1,0-0.1
			c0,0,0-0.1,0-0.1c0,0,0.1-0.1,0.1-0.1c0.1,0,0.1,0,0.2,0.1c0.1,0.1,0.2,0.1,0.3,0.1c0.1,0,0.2,0,0.4,0.1c0.1,0,0.1,0,0.2,0
			c0.1,0,0.1,0,0.2,0.1c0,0,0.1,0.1,0.1,0.1c0,0,0,0.1,0,0.2l-1.8,3.4C38,9.2,38,9.3,38,9.4c0,0.1,0,0.2,0,0.2c0,0,0,0,0,0.1
			c0,0,0,0.1,0,0.1c0,0,0,0.1,0,0.1c0,0.1-0.1,0.1-0.2,0.1c0,0-0.1-0.1-0.2-0.1c-0.1-0.1-0.2-0.1-0.3-0.2l-0.2-0.1
			C36.9,9.4,36.8,9.4,36.7,9.3z"/>
		<path class="st0" d="M37.3,11.4c0-0.2,0-0.3,0.1-0.5c0.1-0.1,0.2-0.2,0.3-0.2c0.1,0,0.3,0,0.4,0.1c0.1,0.1,0.1,0.1,0.2,0.2
			c0,0.1,0.1,0.1,0.1,0.2c0,0,0,0.1,0.1,0.1c0,0,0.1,0.1,0.1,0.1c0.1,0.1,0.2,0.1,0.4,0c0.2,0,0.3-0.1,0.5-0.2
			c-0.1-0.1-0.2-0.2-0.2-0.3c0-0.1,0-0.3,0-0.4l0.6-2.4c0-0.1,0-0.2,0-0.3c0-0.1,0-0.2-0.1-0.3c0-0.1,0-0.2-0.1-0.2
			c0-0.1,0-0.1,0-0.1c0.1-0.1,0.2-0.1,0.3,0c0.1,0.1,0.2,0.1,0.3,0.2c0.2,0.2,0.4,0.3,0.4,0.3l0,0c0.1,0.1,0.2,0.2,0.4,0.2
			C41.2,8,41.3,8,41.3,8.1c0.1,0,0.1,0.1,0.1,0.1c0,0,0,0.1,0,0.1c0,0,0,0.1-0.1,0.1c0,0-0.1,0-0.1,0c0,0,0,0-0.1,0
			c-0.1,0-0.1,0-0.2,0c0,0-0.1,0-0.1,0.1c0,0-0.1,0.1-0.1,0.2l-0.5,1.9l1.5-1C42,9.5,42,9.5,42,9.5c0-0.1,0.1-0.1,0.1-0.2
			c0-0.1,0-0.1,0-0.2c0,0,0,0,0-0.1c0,0,0-0.1,0-0.1c0,0,0-0.1,0-0.1c0.1-0.1,0.2-0.1,0.3,0c0.1,0.1,0.2,0.1,0.3,0.3
			c0.1,0.1,0.2,0.1,0.3,0.2c0.1,0.1,0.1,0.2,0.1,0.2c0,0-0.1,0.1-0.1,0.1c0,0-0.1,0-0.2,0c-0.1,0-0.2,0-0.3,0c-0.1,0-0.2,0-0.2,0.1
			L40,11.2c-0.3,0.2-0.7,0.4-0.9,0.5c-0.3,0.1-0.5,0.2-0.8,0.2c-0.2,0-0.5,0-0.7-0.2C37.5,11.7,37.4,11.5,37.3,11.4z"/>
		<path class="st0" d="M42.7,13.8c-0.1-0.2-0.2-0.5-0.3-0.6c0-0.2,0-0.3,0-0.4c0.4-0.4,0.6-0.7,0.7-0.8c0,0,0.1,0,0.1,0
			c0,0,0,0.2,0,0.4c-0.1,0.4-0.1,0.8-0.1,1.1c0,0.3,0.1,0.6,0.4,0.9c0.1,0.2,0.3,0.3,0.4,0.3c0.2,0,0.3,0,0.4-0.1
			c0.1-0.1,0.2-0.2,0.2-0.4c0-0.2,0-0.3,0-0.5c0-0.2,0-0.4-0.1-0.8c-0.1-0.4-0.1-0.7-0.1-0.9c0-0.2,0-0.5,0.1-0.7
			c0.1-0.2,0.2-0.4,0.3-0.6c0.2-0.2,0.4-0.2,0.6-0.2c0.2,0,0.5,0.1,0.8,0.3c0.3,0.2,0.6,0.4,0.9,0.8c0.3,0.3,0.5,0.6,0.6,0.9
			c0.1,0.2,0.1,0.4,0.1,0.5c-0.4,0.4-0.6,0.7-0.6,0.7c-0.1,0-0.1,0-0.1,0c0,0,0-0.1,0-0.2c0-0.1,0-0.2,0-0.3c0-0.3,0-0.6,0-0.8
			c0-0.2-0.1-0.5-0.3-0.6c-0.2-0.2-0.3-0.3-0.5-0.3s-0.3,0-0.4,0.1c-0.1,0.1-0.2,0.3-0.2,0.5c0,0.2,0,0.6,0.1,1
			c0.1,0.4,0.1,0.7,0.1,1c0,0.3,0,0.5-0.1,0.8c-0.1,0.2-0.2,0.5-0.4,0.6c-0.3,0.3-0.7,0.4-1.1,0.2c-0.4-0.1-0.8-0.4-1.2-0.9
			C43,14.3,42.8,14.1,42.7,13.8z"/>
		<path class="st0" d="M44.8,16.2c0-0.2,0.2-0.4,0.4-0.6c0.2-0.1,0.5-0.2,0.7-0.1c0.3,0.1,0.5,0.2,0.8,0.5c0.2,0.2,0.5,0.5,0.7,0.8
			l0.4-0.2c0.2-0.1,0.3-0.2,0.4-0.3c0.1-0.1,0.1-0.2,0-0.4c-0.1-0.1-0.1-0.2-0.2-0.2c-0.1,0-0.2,0-0.4,0c-0.2,0-0.3,0-0.4,0
			c-0.1,0-0.2-0.1-0.3-0.2c-0.1-0.1-0.1-0.2,0-0.3c0-0.1,0.1-0.2,0.2-0.2c0.2-0.1,0.5-0.1,0.7,0c0.3,0.2,0.5,0.4,0.7,0.8
			c0.2,0.4,0.3,0.8,0.3,1.2c0,0.4-0.2,0.7-0.6,0.9L47,18.5c-0.1,0.1-0.3,0.2-0.3,0.2c-0.1,0.1-0.1,0.2-0.2,0.3c0,0,0,0.1-0.1,0.1
			c0,0,0,0.1-0.1,0.1c0,0-0.1,0-0.1,0c0,0-0.1-0.1-0.2-0.2l-0.3-0.4c-0.1-0.2-0.2-0.3-0.3-0.4c0,0,0-0.1,0-0.1c0,0,0.1-0.1,0.1-0.1
			l0.2-0.1c-0.2,0-0.3-0.1-0.5-0.3c-0.2-0.1-0.3-0.3-0.5-0.5C44.8,16.7,44.7,16.4,44.8,16.2z M45.6,16.9c0,0.1,0,0.2,0.1,0.4
			c0.1,0.1,0.1,0.2,0.2,0.2c0.1,0.1,0.2,0.1,0.3,0.1l0.9-0.5c-0.2-0.2-0.4-0.4-0.6-0.5s-0.4-0.1-0.6,0
			C45.8,16.6,45.7,16.7,45.6,16.9z"/>
		<path class="st0" d="M46.5,19.5c0.1-0.2,0.3-0.4,0.6-0.5l1.7-0.6c0.1,0,0.2-0.1,0.2-0.1c0-0.1,0.1-0.1,0.1-0.2c0,0,0,0,0-0.1
			c0,0,0-0.1,0.1-0.1c0,0,0,0,0.1,0c0,0,0.1,0,0.1,0c0,0,0.1,0.1,0.1,0.1c0,0.1,0,0.1,0.1,0.3c0,0.1,0.1,0.2,0.1,0.4l0.2,0.6
			c0,0.1,0,0.1-0.1,0.2c0,0-0.1,0-0.1,0c-0.1,0-0.1,0-0.2,0l-1.9,0.7c-0.2,0.1-0.3,0.1-0.3,0.2c-0.1,0.1-0.1,0.2,0,0.3
			c0,0.1,0.1,0.1,0.2,0.2c0.1,0.1,0.2,0.1,0.3,0.1l1.7-0.6c0.1,0,0.2-0.1,0.2-0.1c0-0.1,0.1-0.1,0.1-0.2c0,0,0,0,0-0.1
			c0,0,0-0.1,0.1-0.1c0,0,0,0,0.1,0c0,0,0.1,0,0.1,0s0.1,0.1,0.1,0.1c0,0.1,0,0.1,0.1,0.3c0,0.1,0.1,0.2,0.1,0.4l0.2,0.6
			c0,0.1,0,0.1-0.1,0.2c0,0-0.1,0-0.1,0c-0.1,0-0.1,0-0.2,0l-1.9,0.7c-0.2,0.1-0.3,0.1-0.3,0.2c-0.1,0.1-0.1,0.1-0.2,0.2
			c-0.1,0.1-0.1,0.1-0.2,0.1c-0.1,0-0.1,0-0.1,0c0,0-0.1-0.1-0.1-0.2c-0.1-0.2-0.2-0.4-0.3-0.6c-0.1-0.1-0.1-0.2-0.2-0.3
			c0-0.1,0-0.1,0-0.1c0,0,0.1-0.1,0.1-0.1l0.4-0.1c-0.2-0.1-0.4-0.2-0.6-0.3c-0.2-0.1-0.3-0.3-0.4-0.5C46.5,20,46.5,19.7,46.5,19.5z
			"/>
		<path class="st0" d="M47.8,23.6c0.1-0.3,0.2-0.6,0.5-0.8c0.2-0.2,0.5-0.4,0.9-0.4c0.4-0.1,0.8,0,1.1,0.1c0.3,0.1,0.5,0.4,0.7,0.6
			c0.2,0.3,0.3,0.6,0.4,1c0,0.3,0.1,0.6,0,0.8c0,0.2-0.1,0.4-0.3,0.6c-0.1,0.1-0.3,0.2-0.4,0.3c-0.1,0-0.2,0-0.3-0.1
			c-0.1-0.1-0.1-0.1-0.2-0.3c0-0.1,0-0.2,0.1-0.3c0.1-0.1,0.2-0.2,0.3-0.3c0.1-0.1,0.2-0.2,0.3-0.3c0.1-0.1,0.1-0.2,0.1-0.3
			c0-0.2-0.2-0.4-0.4-0.5c-0.2-0.1-0.5-0.1-0.9-0.1c-0.3,0.1-0.6,0.1-0.8,0.3c-0.2,0.1-0.3,0.3-0.4,0.5c-0.1,0.2-0.1,0.4-0.1,0.6
			c0,0.2,0.1,0.3,0.2,0.4c0.1,0.1,0.2,0.2,0.3,0.3c0.1,0.1,0.1,0.2,0.1,0.2c0,0,0,0-0.1,0c0,0-0.1,0-0.1,0c-0.2-0.1-0.4-0.3-0.6-0.5
			c-0.2-0.2-0.3-0.5-0.3-0.9C47.7,24.3,47.7,24,47.8,23.6z"/>
		<path class="st0" d="M48.1,27.2c0.1-0.3,0.3-0.5,0.6-0.7c0.3-0.2,0.6-0.3,1-0.3c0.4,0,0.8,0.1,1,0.3c0.3,0.2,0.5,0.4,0.6,0.8
			c0.1,0.3,0.2,0.6,0.2,1c0,0.3-0.1,0.5-0.1,0.8c-0.1,0.2-0.2,0.4-0.4,0.6c-0.2,0.1-0.4,0.2-0.6,0.2c-0.3,0-0.5-0.1-0.6-0.3
			c-0.1-0.2-0.2-0.5-0.2-0.9l0-1.1c-0.4,0-0.7,0.1-0.9,0.3c-0.2,0.2-0.3,0.5-0.3,0.8c0,0.2,0,0.4,0.1,0.5c0.1,0.1,0.1,0.3,0.2,0.4
			c0.1,0.1,0.1,0.2,0.1,0.2c0,0,0,0-0.1,0c0,0-0.1,0-0.1-0.1c-0.5-0.3-0.7-0.8-0.7-1.5C47.9,27.8,48,27.5,48.1,27.2z M50,28.1
			c0,0.2,0,0.4,0.1,0.5c0.1,0.1,0.2,0.2,0.4,0.2c0.2,0,0.3,0,0.4-0.1c0.1-0.1,0.2-0.2,0.2-0.4c0-0.2-0.1-0.4-0.3-0.5
			c-0.2-0.1-0.5-0.2-0.8-0.3L50,28.1z"/>
	</g>
	<g>
		<path class="st0" d="M12.2,47.3c-0.1-0.1-0.2-0.1-0.3-0.2c-0.1-0.1-0.1-0.1-0.1-0.2c0,0,0.1-0.1,0.1-0.1c0,0,0.1,0,0.2,0
			c0.1,0,0.2,0,0.3-0.1c0.1,0,0.1-0.1,0.2-0.2l1.6-2.4c0.1-0.1,0.1-0.2,0.1-0.3c0-0.1,0-0.2-0.1-0.3c0-0.1,0-0.1,0-0.2
			c0,0,0-0.1,0-0.1c0.1-0.1,0.1-0.1,0.2,0c0,0,0.1,0.1,0.2,0.2c0.1,0.1,0.2,0.1,0.3,0.2l1.5,1.1c0.4,0.3,0.6,0.6,0.7,0.9
			c0.1,0.3,0,0.7-0.2,1c-0.2,0.4-0.5,0.6-0.9,0.6c-0.3,0-0.7-0.1-1.1-0.4l-0.8-0.5l-0.6,0.9c-0.1,0.1-0.1,0.2-0.1,0.3
			c0,0.1,0,0.2,0.1,0.3c0,0.1,0,0.1,0,0.2c0,0,0,0.1,0,0.1c-0.1,0.1-0.1,0.1-0.2,0c0,0-0.1-0.1-0.2-0.2c-0.1-0.1-0.2-0.1-0.3-0.2
			l-0.4-0.3C12.4,47.4,12.3,47.4,12.2,47.3z M14.8,46.4c0.2,0.2,0.4,0.2,0.6,0.2c0.2,0,0.4-0.2,0.6-0.5c0.1-0.2,0.2-0.4,0.3-0.5
			c0-0.1,0-0.3,0-0.4c-0.1-0.1-0.2-0.2-0.3-0.3l-0.4-0.3l-1.1,1.5L14.8,46.4z"/>
		<path class="st0" d="M16.7,50.1c-0.1,0-0.2-0.1-0.3-0.1c-0.1,0-0.1,0-0.1-0.1c0,0,0-0.1,0-0.1c0,0,0-0.1,0.1-0.1c0,0,0.1,0,0.1,0
			c0,0,0,0,0.1,0c0.1,0,0.2-0.1,0.2-0.1c0.1,0,0.1-0.1,0.1-0.2l0.6-1.4c0-0.1,0.1-0.2,0.1-0.3c0-0.1,0-0.1,0-0.2c0-0.1,0-0.1,0-0.2
			c0,0,0.1-0.1,0.1-0.1c0.1,0,0.1,0,0.2,0c0.1,0,0.2,0.1,0.3,0.1c0.1,0,0.2,0,0.4,0c0.2,0,0.3,0,0.3,0c0,0,0.1,0,0.1,0.1
			c0,0,0,0.1,0,0.2l-0.1,0.3c0.2-0.1,0.4-0.2,0.6-0.2c0.2,0,0.4,0,0.6,0.1c0.2,0.1,0.3,0.2,0.3,0.3c0.1,0.1,0.1,0.3,0,0.4
			c-0.1,0.1-0.1,0.2-0.2,0.2c-0.1,0-0.2,0-0.3,0c-0.1,0-0.1-0.1-0.2-0.1c0,0-0.1-0.1-0.1-0.2c0-0.1-0.1-0.1-0.1-0.2
			c0,0-0.1-0.1-0.1-0.1c-0.2-0.1-0.4,0-0.6,0.1l-0.7,1.5c0,0.1-0.1,0.2,0,0.2c0,0.1,0,0.1,0.1,0.2c0,0,0,0,0,0.1c0,0,0,0.1,0,0.1
			c0,0,0,0.1,0,0.1c0,0.1-0.1,0.1-0.2,0.1c-0.1,0-0.1-0.1-0.2-0.1c-0.1-0.1-0.2-0.1-0.3-0.2L17,50.2C16.9,50.2,16.8,50.1,16.7,50.1z
			"/>
		<path class="st0" d="M21.1,51.6c-0.3-0.2-0.4-0.4-0.5-0.7s-0.1-0.6,0-1c0.1-0.3,0.2-0.6,0.5-0.8c0.2-0.2,0.5-0.3,0.8-0.4
			c0.3-0.1,0.6-0.1,1,0c0.3,0.1,0.6,0.2,0.8,0.4c0.2,0.2,0.4,0.4,0.5,0.7c0.1,0.3,0.1,0.6,0,1c-0.1,0.4-0.2,0.7-0.5,0.9
			c-0.2,0.2-0.5,0.4-0.8,0.4c-0.3,0.1-0.6,0.1-1,0C21.6,52,21.3,51.8,21.1,51.6z M21.6,51.2c0.1,0.2,0.2,0.4,0.4,0.4
			c0.2,0,0.4,0,0.5-0.2c0.2-0.2,0.3-0.5,0.4-0.9c0.1-0.4,0.1-0.7,0-0.9c-0.1-0.2-0.2-0.4-0.4-0.4c-0.2,0-0.4,0-0.6,0.2
			c-0.2,0.2-0.3,0.5-0.4,0.8C21.6,50.6,21.6,50.9,21.6,51.2z"/>
		<path class="st0" d="M27.4,52.6c0,0,0-0.1,0-0.2l0-0.1l0,0c-0.1,0.1-0.2,0.2-0.3,0.2c-0.1,0.1-0.3,0.1-0.5,0.1
			c-0.2,0-0.4-0.1-0.6-0.2c-0.2-0.1-0.4-0.3-0.5-0.6c-0.1-0.3-0.2-0.6-0.2-1c0-0.4,0.1-0.7,0.3-1c0.2-0.3,0.3-0.4,0.6-0.6
			c0.2-0.1,0.5-0.2,0.7-0.2c0.2,0,0.3,0,0.4,0.1c0.1,0,0.2,0.1,0.3,0.1l0,0l0-0.5c0-0.1,0-0.2,0-0.2c0-0.1-0.1-0.1-0.1-0.2
			c0,0,0-0.1-0.1-0.1s0,0,0-0.1c0,0,0-0.1,0.1-0.1c0,0,0.1-0.1,0.2-0.1c0.1,0,0.2,0,0.3,0c0.1,0,0.2-0.1,0.3-0.1
			c0.1,0,0.1,0,0.2-0.1c0.1,0,0.1,0,0.2,0c0.1,0,0.1,0,0.1,0c0,0,0,0.1,0,0.1l-0.1,3.5c0,0.2,0,0.3,0,0.4c0,0.1,0.1,0.2,0.1,0.3
			c0,0.1,0.1,0.1,0.1,0.2c0,0.1,0,0.1-0.1,0.1c0,0-0.1,0-0.2,0c0,0-0.2,0-0.4,0c-0.3,0-0.4,0-0.6,0C27.4,52.7,27.4,52.7,27.4,52.6z
			 M26.5,51.9c0.1,0.2,0.2,0.3,0.4,0.3c0.1,0,0.2-0.1,0.3-0.2c0.1-0.1,0.1-0.3,0.1-0.5l0-1.6c0-0.1-0.1-0.2-0.1-0.2
			s-0.1-0.1-0.2-0.1c-0.4,0-0.6,0.4-0.6,1.3C26.4,51.4,26.5,51.7,26.5,51.9z"/>
		<path class="st0" d="M30.4,52.3c-0.2-0.1-0.3-0.3-0.4-0.6L29.8,50c0-0.1,0-0.2-0.1-0.2c0-0.1-0.1-0.1-0.2-0.2c0,0,0,0-0.1,0
			c0,0-0.1,0-0.1-0.1c0,0,0,0,0-0.1c0,0,0-0.1,0-0.1c0,0,0.1,0,0.1-0.1c0.1,0,0.1,0,0.3,0c0.1,0,0.2,0,0.4,0l0.6-0.1
			c0.1,0,0.1,0,0.1,0.1c0,0,0,0.1,0,0.1c0,0.1,0,0.1,0,0.2l0.3,1.9c0,0.1,0.1,0.3,0.2,0.3c0.1,0.1,0.2,0.1,0.3,0.1
			c0.1,0,0.1-0.1,0.2-0.1c0.1-0.1,0.1-0.2,0.2-0.3l-0.3-1.7c0-0.1,0-0.2-0.1-0.2c0-0.1-0.1-0.1-0.2-0.2c0,0,0,0-0.1,0
			c0,0-0.1,0-0.1-0.1c0,0,0,0,0-0.1c0,0,0-0.1,0-0.1c0,0,0.1,0,0.1-0.1c0.1,0,0.1,0,0.3,0c0.1,0,0.2,0,0.4,0l0.6-0.1
			c0.1,0,0.1,0,0.1,0.1c0,0,0,0.1,0,0.1c0,0.1,0,0.1,0,0.2l0.3,1.9c0,0.2,0.1,0.3,0.1,0.4c0,0.1,0.1,0.2,0.2,0.2
			c0.1,0.1,0.1,0.1,0.1,0.2c0,0.1,0,0.1,0,0.1c0,0-0.1,0.1-0.2,0.1c-0.2,0-0.4,0.1-0.6,0.2c-0.1,0-0.2,0.1-0.3,0.1
			c-0.1,0-0.1,0-0.1,0c0,0,0-0.1-0.1-0.2l-0.1-0.4c-0.1,0.2-0.2,0.3-0.4,0.5c-0.2,0.1-0.3,0.2-0.6,0.3
			C30.8,52.5,30.6,52.4,30.4,52.3z"/>
		<path class="st0" d="M35.6,51.2c-0.3,0-0.6-0.1-0.8-0.3c-0.3-0.2-0.4-0.4-0.6-0.8c-0.1-0.4-0.2-0.7-0.1-1c0.1-0.3,0.2-0.6,0.5-0.8
			c0.2-0.2,0.5-0.4,0.8-0.5c0.3-0.1,0.5-0.2,0.8-0.2c0.2,0,0.4,0,0.6,0.1c0.2,0.1,0.3,0.2,0.3,0.4c0,0.1,0,0.2,0,0.3
			c0,0.1-0.1,0.2-0.2,0.2c-0.1,0-0.2,0-0.3,0c-0.1,0-0.2-0.1-0.3-0.2c-0.1-0.1-0.2-0.2-0.3-0.2c-0.1,0-0.2,0-0.3,0
			c-0.2,0.1-0.3,0.2-0.4,0.5c-0.1,0.2,0,0.5,0.1,0.9c0.1,0.3,0.2,0.5,0.4,0.7c0.2,0.2,0.4,0.2,0.5,0.3c0.2,0,0.4,0,0.6-0.1
			c0.1-0.1,0.3-0.1,0.4-0.2c0.1-0.1,0.2-0.2,0.3-0.3c0.1-0.1,0.1-0.2,0.2-0.1c0,0,0,0,0,0c0,0,0,0.1,0,0.1c-0.1,0.2-0.2,0.5-0.3,0.7
			c-0.2,0.2-0.4,0.4-0.8,0.5C36.2,51.1,35.9,51.2,35.6,51.2z"/>
		<path class="st0" d="M39.2,49.5c-0.2-0.1-0.4-0.2-0.6-0.5l-0.8-1.5c0-0.1-0.1-0.1-0.1-0.2c0,0-0.1-0.1-0.2-0.1c0,0-0.1,0-0.1,0
			c0,0,0,0-0.1,0c0,0,0-0.1,0-0.1c0,0,0-0.1,0.1-0.1c0.1,0,0.1-0.1,0.2-0.2s0.1-0.3,0.1-0.4c0-0.2,0.1-0.3,0.1-0.4
			c0-0.1,0.1-0.1,0.1-0.2c0.1,0,0.1,0,0.2,0c0.1,0,0.1,0.1,0.2,0.2l0.2,0.4l0.6-0.3c0.1,0,0.1,0,0.2,0c0,0,0.1,0.1,0.1,0.2
			c0.1,0.1,0.1,0.2,0,0.3c0,0-0.1,0-0.1,0c0,0-0.1,0-0.1,0c-0.1,0-0.1,0-0.2,0c-0.1,0-0.1,0-0.2,0.1l-0.1,0.1l1,1.8
			c0.1,0.1,0.2,0.2,0.2,0.3c0.1,0,0.1,0,0.2,0c0.1,0,0.1-0.1,0.2-0.2c0-0.1,0.1-0.2,0.1-0.2c0,0,0-0.1,0.1-0.1c0,0,0.1,0,0.1,0
			c0,0,0,0.1,0,0.2c0,0.2-0.1,0.4-0.2,0.6c-0.1,0.2-0.2,0.3-0.4,0.4C39.7,49.6,39.4,49.6,39.2,49.5z"/>
		<path class="st0" d="M42.4,47.7c-0.2,0.1-0.4,0.2-0.5,0.2c-0.1,0-0.2,0-0.3,0c-0.3-0.2-0.5-0.4-0.6-0.5c0,0,0,0,0-0.1
			c0,0,0,0,0-0.1c0,0,0.1,0,0.2,0c0.1,0,0.2,0,0.3,0c0.3,0,0.6,0,0.8,0c0.2,0,0.4-0.1,0.6-0.3c0.1-0.1,0.2-0.2,0.2-0.2
			c0-0.1,0-0.2-0.1-0.2c-0.1-0.1-0.2-0.1-0.4-0.1c-0.2,0-0.4,0.1-0.7,0.1c-0.3,0.1-0.5,0.1-0.7,0.1c-0.2,0-0.4,0-0.5,0
			c-0.2,0-0.3-0.1-0.4-0.2c-0.2-0.2-0.2-0.5-0.1-0.8c0.1-0.3,0.4-0.6,0.8-1c0.3-0.2,0.5-0.4,0.7-0.5c0.2-0.1,0.3-0.1,0.4-0.1
			c0.3,0.2,0.5,0.3,0.6,0.5c0,0,0,0.1,0,0.1c0,0-0.1,0-0.2,0.1c-0.1,0-0.2,0-0.3,0c-0.2,0-0.4,0-0.6,0.1c-0.2,0-0.3,0.1-0.5,0.2
			C41.1,45,41.1,45,41,45.1c0,0.1,0,0.1,0,0.2c0.1,0.1,0.2,0.1,0.3,0.1c0.2,0,0.4-0.1,0.7-0.1c0.3-0.1,0.5-0.1,0.7-0.1s0.4,0,0.6,0
			c0.2,0,0.3,0.1,0.5,0.3c0.2,0.2,0.2,0.5,0.1,0.9c-0.1,0.3-0.4,0.7-0.8,1C42.9,47.5,42.6,47.6,42.4,47.7z"/>
	</g>
	<g>
		<circle class="st0" cx="8" cy="38.3" r="2.1"/>
		<circle class="st0" cx="47.2" cy="38.3" r="2.1"/>
	</g>
</g>
</svg>
