<?xml version="1.0" encoding="UTF-8"?><svg id="a" xmlns="http://www.w3.org/2000/svg" viewBox="0 0 55.15 55.3"><defs><style>.b{fill:#b21807;stroke-width:0px;}</style></defs><path class="b" d="M27.58,20.31c1.31,0,2.38-1.07,2.38-2.38s-1.07-2.38-2.38-2.38-2.38,1.07-2.38,2.38,1.07,2.38,2.38,2.38Z"/><path class="b" d="M27.58,24.6c-2.23,0-4.32.87-5.89,2.44-1.58,1.58-2.44,3.67-2.44,5.89,0,2.66,1.28,5.17,3.43,6.74.14.1.35.12.55.03.55-.24,1.11-.44,1.69-.58-1.14-.3-1.89-.96-2.04-1.1-1.65-1.5-1.61-3.57-1.6-3.87,1.77.88,3.15.95,4.03.86,2.47-.23,3.61-1.81,6.02-1.66,1.14.07,2.04.5,2.56.8-.23.05-.56.15-.93.32-1.5.69-1.81,1.79-2.88,2.88-.22.23-.95.96-2,1.45,1.34.06,2.64.36,3.86.9.2.09.41.08.56-.04.46-.34.89-.72,1.27-1.15,1.38-1.53,2.15-3.51,2.15-5.58,0-2.22-.87-4.32-2.44-5.89-1.57-1.57-3.66-2.44-5.89-2.44Z"/><path class="b" d="M27.58,9.79c-9.86,0-17.86,8-17.86,17.86s8,17.86,17.86,17.86,17.86-8,17.86-17.86-8-17.86-17.86-17.86ZM35.61,40.18c-.5.55-1.06,1.06-1.65,1.49-.86.63-2.02.74-3.03.3-1.06-.47-2.18-.7-3.35-.7s-2.3.24-3.35.7c-.41.18-.84.27-1.26.27-.63,0-1.24-.19-1.75-.56-2.79-2.03-4.45-5.3-4.45-8.74,0-2.89,1.13-5.6,3.17-7.65,1.54-1.54,3.47-2.56,5.56-2.97-1.64-.78-2.78-2.46-2.78-4.39,0-2.68,2.18-4.86,4.86-4.86s4.86,2.18,4.86,4.86c0,1.94-1.14,3.61-2.78,4.39,2.1.41,4.02,1.43,5.56,2.97,2.04,2.04,3.17,4.76,3.17,7.65,0,2.69-.99,5.26-2.79,7.24Z"/><path class="b" d="M27.58,55.12C12.43,55.12.11,42.8.11,27.65S12.43.18,27.58.18s27.47,12.32,27.47,27.47-12.32,27.47-27.47,27.47ZM27.58.53C12.62.53.46,12.7.46,27.65s12.17,27.12,27.12,27.12,27.12-12.17,27.12-27.12S42.53.53,27.58.53Z"/><path class="b" d="M7.11,28.1c.01.12.02.24.01.36,0,.06-.01.1-.04.13-.03.03-.06.04-.11.04-.04,0-.08-.02-.11-.05-.03-.03-.07-.08-.12-.14-.08-.1-.15-.18-.22-.23s-.16-.08-.28-.08l-3.53-.06v.27c0,.17.04.32.15.44.1.12.24.25.42.37.12.09.2.16.25.21.05.05.07.1.07.15,0,.06-.03.09-.09.09-.07,0-.19-.02-.36-.07-.24-.07-.44-.1-.61-.11-.1,0-.16-.02-.19-.06-.03-.04-.05-.11-.05-.21l.06-3.46c0-.1.02-.17.05-.2.03-.04.1-.05.2-.05.17,0,.37-.03.61-.09.17-.04.29-.06.36-.06.03,0,.05,0,.06.02.02.02.02.04.02.06,0,.05-.03.11-.08.16-.06.05-.14.11-.25.19-.18.12-.33.25-.43.37s-.16.27-.16.44v.25s3.52.06,3.52.06c.12,0,.21-.02.29-.07.07-.05.15-.13.23-.23.06-.07.1-.11.13-.14s.06-.04.1-.04c.1,0,.15.06.15.18l-.02.33c-.02.12-.02.23-.03.33v.58c-.01.05,0,.15,0,.3Z"/><path class="b" d="M7.23,25.06c-.02.14-.03.23-.04.28-.02.11-.08.16-.18.14-.04,0-.07-.02-.09-.05-.03-.02-.05-.05-.07-.07-.02-.02-.03-.04-.04-.05-.05-.08-.11-.14-.16-.19s-.13-.08-.23-.1l-3.02-.61c-.11-.02-.2-.02-.26,0-.07.02-.14.05-.2.1-.03.02-.06.03-.09.04-.03.01-.06.02-.08.01-.05,0-.09-.04-.11-.1-.03-.06-.03-.13-.02-.23.02-.12.03-.23.02-.33,0-.1-.02-.22-.04-.37,0-.07-.02-.13-.02-.2s0-.12,0-.17c.01-.05.03-.09.07-.11.04-.02.09-.02.16,0l1.81.37v-.02c-.18-.12-.31-.29-.4-.49-.09-.2-.12-.43-.07-.68.13-.66.52-.92,1.15-.79l1.74.35c.1.02.18.02.25,0,.07-.02.14-.06.22-.12.01,0,.03-.02.07-.04.03-.02.06-.03.09-.04.03,0,.06,0,.09,0,.1.02.14.09.11.2-.01.05-.03.15-.07.28-.04.1-.07.23-.1.39l-.04.17c-.03.16-.05.29-.06.4-.02.14-.03.23-.04.28-.02.11-.08.16-.18.14-.04,0-.07-.02-.09-.05-.03-.02-.05-.05-.07-.07-.02-.02-.03-.04-.04-.05-.05-.08-.11-.14-.16-.19-.05-.05-.13-.08-.23-.1l-1.67-.34c-.29-.06-.46.02-.51.23-.02.12.02.24.14.36s.29.23.53.32l1.35.27c.1.02.18.02.25,0,.07-.02.14-.06.22-.12.01,0,.03-.02.07-.04.03-.02.06-.03.09-.04.03,0,.06,0,.09,0,.1.02.14.09.11.2-.01.05-.03.15-.07.28-.04.1-.07.23-.1.39l-.04.17c-.03.16-.05.29-.06.4Z"/><path class="b" d="M8.22,20.65c-.24.23-.52.37-.83.44-.32.07-.65.04-1-.11-.38-.15-.66-.37-.85-.65-.19-.28-.29-.59-.3-.92-.01-.34.05-.68.19-1.01.1-.26.24-.48.41-.67s.36-.31.56-.38c.2-.07.41-.06.61.02.24.1.4.27.45.5.06.23.01.53-.13.9l-.43,1.05c.38.12.7.12.97,0,.27-.12.45-.32.57-.6.07-.18.11-.34.11-.48,0-.14-.02-.29-.06-.43-.03-.13-.02-.21.02-.23.02,0,.05-.01.07,0,.03.01.06.04.09.1.32.48.35,1.04.1,1.66-.13.32-.31.59-.55.81ZM6.85,19.15c.08-.19.09-.36.05-.51-.05-.15-.15-.25-.31-.32-.14-.06-.28-.06-.41-.02s-.22.14-.28.29c-.08.19-.06.39.05.59.11.2.34.38.67.53l.23-.56Z"/><path class="b" d="M10.14,16.77c-.06.11-.13.2-.2.29-.07.09-.15.11-.23.05-.03-.02-.05-.06-.06-.1,0-.04-.01-.1-.01-.18,0-.13-.01-.23-.04-.32-.02-.08-.08-.16-.18-.23l-2.43-1.86c-.09-.07-.19-.11-.28-.11-.09,0-.2.01-.32.04-.09.02-.15.03-.19.03-.04,0-.07,0-.1-.03-.08-.06-.08-.14-.01-.23.03-.04.1-.12.21-.25.09-.09.16-.18.22-.26l1.19-1.56c.3-.39.62-.63.98-.71.35-.08.7,0,1.03.27.24.18.39.4.47.66.07.26.05.51-.08.75.13-.08.29-.11.47-.09s.41.07.67.15c.67.22,1.11.27,1.32.13.09-.04.15-.04.19-.01.04.03.03.09-.03.17l-.32.42c-.17.22-.33.38-.49.47s-.33.14-.52.13c-.19,0-.43-.06-.73-.15-.39-.12-.7-.18-.92-.19-.22-.01-.38.04-.48.17l-.16.21,1.08.83c.09.07.19.11.28.11.09,0,.2-.01.32-.04.09-.02.15-.03.19-.03.04,0,.07,0,.1.03.08.06.08.14.01.23-.03.04-.1.12-.21.25-.09.09-.16.18-.22.26l-.35.46s-.09.13-.18.25ZM9.11,13.79c.17-.22.24-.42.22-.6s-.15-.36-.38-.54c-.2-.15-.36-.24-.51-.28-.14-.04-.27-.03-.38.03-.11.06-.23.16-.35.32l-.31.41,1.4,1.07.31-.4Z"/><path class="b" d="M13.41,12.72c-.31.09-.63.1-.94.02-.31-.08-.6-.26-.85-.54-.27-.31-.43-.63-.47-.96-.04-.33,0-.65.15-.96s.35-.58.62-.82c.21-.18.43-.32.67-.41.24-.09.46-.12.68-.09s.39.13.54.29c.17.2.23.41.18.65-.05.24-.23.48-.52.74l-.85.75c.28.28.57.42.86.43s.55-.08.77-.28c.14-.13.25-.25.31-.38s.11-.26.14-.41c.03-.13.07-.2.12-.2.03,0,.05.01.06.03.02.02.03.07.04.13.07.58-.15,1.09-.65,1.53-.26.23-.54.39-.86.48ZM12.85,10.77c.16-.14.25-.28.27-.44.02-.15-.02-.3-.14-.43-.1-.12-.22-.18-.36-.2s-.26.03-.38.13c-.16.14-.23.32-.22.55.01.23.13.49.36.78l.45-.4Z"/><path class="b" d="M15.54,10.89c-.23-.03-.42-.17-.57-.41-.14-.22-.17-.46-.11-.73.06-.26.2-.52.42-.78.22-.26.49-.49.82-.71l-.24-.4c-.13-.21-.24-.34-.35-.4-.11-.06-.23-.06-.35.02-.1.06-.16.14-.17.23-.02.09-.03.23-.02.39,0,.18,0,.32-.03.43-.03.11-.1.2-.21.27-.1.06-.2.08-.3.05-.1-.02-.18-.08-.24-.18-.13-.21-.12-.45.02-.72s.4-.51.77-.74c.42-.25.81-.37,1.17-.35.37.02.67.22.91.61l.63,1.04c.09.14.17.24.24.3.08.06.16.11.26.15.04.02.07.03.1.05.03.02.06.04.07.07.03.05.03.09,0,.13s-.09.1-.18.17l-.4.31c-.19.16-.34.26-.43.32-.05.03-.09.04-.13.02-.04-.01-.08-.06-.12-.13l-.13-.21c-.04.18-.11.35-.24.53s-.29.34-.52.47c-.24.14-.47.2-.7.17ZM16.15,9.98c.11.03.23,0,.35-.07.09-.06.16-.13.21-.22.05-.09.07-.19.08-.31l-.54-.88c-.24.18-.39.39-.47.61s-.05.44.07.63c.08.13.18.21.29.24Z"/><path class="b" d="M18.93,9.11c-.12.06-.21.11-.26.13-.1.05-.18.02-.22-.07-.01-.03-.02-.07-.01-.1,0-.03.01-.07.02-.1s.02-.05.02-.06c.04-.09.06-.17.07-.24s0-.15-.05-.24l-1.24-2.82c-.04-.1-.09-.17-.15-.22-.06-.04-.12-.08-.19-.11-.03-.02-.06-.03-.09-.05-.03-.02-.05-.04-.06-.06-.02-.05-.01-.1.02-.15.03-.05.09-.1.18-.15.11-.05.2-.11.28-.17.08-.06.17-.14.28-.24.05-.05.1-.09.15-.13.05-.04.1-.07.14-.09.05-.02.09-.02.13,0,.04.02.07.06.1.13l1.57,3.57c.04.09.09.16.15.2s.13.08.22.11c.01,0,.04.02.07.03.03.02.06.03.09.05.02.02.04.04.05.07.04.09,0,.16-.1.21-.05.02-.14.06-.27.1-.11.03-.23.08-.38.14l-.16.07c-.15.06-.27.12-.36.18Z"/><path class="b" d="M21.91,7.93c-.12.04-.23.07-.34.09-.12.02-.18-.01-.2-.11,0-.04,0-.08.02-.12.02-.04.06-.09.11-.14.08-.1.14-.18.18-.26.04-.08.04-.18.02-.29l-.62-3c-.02-.12-.07-.2-.14-.26s-.16-.12-.27-.17c-.08-.04-.13-.08-.16-.1-.03-.02-.05-.05-.06-.09-.02-.1.03-.16.14-.18.05-.01.15-.03.32-.05.12-.01.24-.03.34-.05l2.85-.59c.1-.02.17-.02.21,0,.04.03.07.09.09.18.03.16.1.35.22.58.07.15.12.27.13.34.01.06,0,.09-.06.1-.05.01-.11,0-.18-.04s-.14-.11-.24-.2c-.17-.15-.33-.27-.47-.35-.14-.08-.3-.1-.48-.06l-1.1.23.37,1.76.9-.19c.1-.02.18-.07.22-.16.04-.09.08-.2.12-.35.02-.09.04-.15.06-.19s.04-.06.07-.07c.08-.02.13.04.16.18.02.11.04.22.05.33.02.14.04.24.05.3.01.07.04.17.08.3.04.11.07.23.1.36.03.13,0,.21-.07.22-.03,0-.06,0-.09-.04-.03-.03-.07-.08-.13-.15-.09-.12-.17-.21-.25-.27-.08-.06-.16-.08-.27-.06l-.9.19.27,1.3c.02.12.07.2.14.27.07.06.16.12.27.17.08.04.13.08.16.1.03.02.05.05.06.09.02.1-.03.16-.14.18-.05.01-.15.03-.32.05-.12.01-.24.03-.34.05l-.56.12c-.06.01-.16.04-.3.08Z"/><path class="b" d="M25.38,7.13c-.18-.14-.28-.35-.29-.64,0-.26.08-.49.27-.68.19-.2.44-.35.75-.47.32-.11.67-.18,1.06-.21v-.46c-.02-.24-.06-.42-.12-.53-.06-.11-.17-.16-.32-.16-.11,0-.2.04-.27.11s-.13.18-.21.33c-.08.16-.16.28-.24.36-.08.08-.18.13-.32.13-.11,0-.21-.03-.28-.1-.08-.07-.11-.16-.12-.27,0-.25.12-.46.37-.62.26-.16.6-.25,1.03-.26.49-.02.88.08,1.19.27.31.2.47.52.48.98l.04,1.22c0,.17.03.3.06.38.04.09.09.17.15.26.02.03.05.06.06.1.02.03.03.07.03.1,0,.05-.02.09-.06.12-.04.02-.12.04-.24.06l-.5.07c-.24.04-.42.06-.53.06-.05,0-.09-.01-.12-.04s-.04-.09-.04-.17v-.25c-.13.14-.28.25-.48.35-.19.09-.42.15-.69.15-.28,0-.51-.06-.69-.19ZM26.35,6.64c.09.08.2.12.34.11.11,0,.21-.03.29-.09.09-.06.16-.13.22-.23l-.03-1.03c-.29.04-.53.14-.71.3-.18.16-.26.35-.26.58,0,.15.05.27.14.35Z"/><path class="b" d="M29.11,7.1c-.14-.02-.23-.03-.28-.04-.11-.02-.16-.08-.14-.18,0-.04.02-.07.05-.09s.05-.05.07-.07c.02-.02.04-.03.05-.04.08-.05.14-.11.19-.16.05-.05.08-.13.1-.23l.32-1.6c.02-.12.03-.21,0-.28-.02-.07-.05-.15-.09-.22-.02-.03-.03-.06-.04-.09s-.02-.06,0-.09c.01-.05.04-.09.1-.12.06-.03.13-.03.23-.02.12.02.23.03.33.02s.22-.02.38-.05c.16-.03.28-.04.36-.03.05.01.09.03.11.07.02.04.02.09,0,.17l-.09.47h.02c.12-.18.29-.31.49-.41.2-.09.43-.12.67-.07.55.11.83.4.83.88h.01c.14-.17.31-.3.5-.4.19-.1.44-.12.73-.06.29.06.51.18.65.37.14.19.18.44.11.77l-.35,1.74c-.02.1-.02.18,0,.25.02.07.06.14.12.22,0,.01.02.03.04.07.02.03.03.06.04.09,0,.03,0,.06,0,.09-.02.1-.09.14-.2.11-.05-.01-.15-.03-.28-.07-.1-.03-.23-.07-.39-.1l-.17-.03c-.16-.03-.29-.05-.4-.06-.14-.02-.23-.03-.28-.04-.11-.02-.16-.08-.14-.18,0-.04.02-.07.05-.09.02-.03.05-.05.07-.07.02-.02.04-.03.05-.04.08-.05.14-.11.19-.16.05-.05.08-.13.1-.23l.33-1.67c.06-.3-.01-.47-.22-.51-.12-.02-.25.02-.37.13-.12.11-.23.28-.32.5l-.28,1.38c-.02.1-.02.18,0,.25.02.07.06.14.12.22,0,.01.02.03.04.07.02.03.03.06.04.09,0,.03,0,.06,0,.09-.02.1-.09.14-.2.11-.05-.01-.15-.03-.28-.07-.1-.03-.23-.07-.39-.1l-.17-.03c-.16-.03-.29-.05-.4-.06-.14-.02-.23-.03-.28-.04-.11-.02-.16-.08-.14-.18,0-.04.02-.07.05-.09.02-.03.05-.05.07-.07.02-.02.04-.03.05-.04.08-.05.14-.11.19-.16.05-.05.08-.13.1-.23l.34-1.67c.06-.29-.02-.46-.23-.51-.12-.02-.24.02-.36.14-.12.12-.23.29-.32.53l-.27,1.35c-.02.1-.02.18,0,.25.02.07.06.14.12.22,0,.01.02.03.04.07.02.03.03.06.04.09,0,.03,0,.06,0,.09-.02.1-.09.14-.2.11-.05-.01-.15-.03-.28-.07-.1-.03-.23-.07-.39-.1l-.17-.03c-.16-.03-.29-.05-.4-.06Z"/><path class="b" d="M34.92,8.56c-.13-.04-.22-.08-.27-.1-.05-.02-.09-.05-.11-.08s-.01-.07,0-.12c.01-.03.03-.06.06-.08.03-.02.06-.04.08-.05.03-.01.05-.02.06-.03.09-.04.16-.08.22-.12.06-.04.1-.11.14-.2l.62-1.51c.05-.11.07-.2.06-.27,0-.07-.02-.15-.05-.24-.03-.08-.04-.15-.02-.19.02-.05.06-.08.13-.1.06-.02.14,0,.24.03.12.04.22.07.32.08.1.01.22.02.38.03.16,0,.28.01.36.04.05.02.08.05.09.09.01.04,0,.1-.03.17l-.96,2.34c-.04.09-.05.17-.04.25s.03.15.07.24c0,.01.01.04.03.07.01.04.02.07.02.1,0,.03,0,.06-.01.09-.04.09-.11.12-.22.07-.06-.02-.15-.06-.26-.12-.1-.06-.22-.11-.36-.17l-.17-.07c-.14-.06-.27-.1-.37-.13ZM36.45,4.75c-.08-.18-.08-.35,0-.52.07-.17.19-.29.37-.36s.36-.07.55.01c.19.08.32.2.39.38.08.17.08.35.01.52-.07.17-.2.29-.38.37-.18.07-.36.07-.55,0-.19-.08-.32-.2-.39-.38Z"/><path class="b" d="M36.71,9.35c-.12-.06-.21-.1-.26-.12-.1-.05-.13-.12-.08-.21.02-.03.04-.06.07-.07.03-.02.06-.03.09-.04s.05-.02.06-.02c.09-.03.17-.06.23-.1.06-.04.11-.1.16-.19l1.44-2.72c.05-.1.08-.18.08-.25,0-.07-.01-.15-.03-.22,0-.03-.01-.07-.02-.1,0-.03,0-.06.01-.08.02-.04.07-.07.13-.08.06,0,.14,0,.23.05.11.05.21.09.31.12.09.02.21.05.36.07.07,0,.13.02.19.03s.12.03.16.05c.05.03.08.06.08.1,0,.04,0,.09-.04.16l-1.82,3.45c-.05.09-.07.17-.07.24,0,.07.02.15.05.25,0,.01,0,.04.02.08,0,.04.01.07.01.1s0,.06-.02.08c-.05.09-.12.11-.22.05-.05-.03-.13-.07-.25-.15-.09-.06-.21-.13-.35-.21l-.16-.08c-.14-.07-.26-.13-.37-.17Z"/><path class="b" d="M37.35,11.36c-.05-.16-.02-.31.09-.46.09-.13.2-.2.33-.22.13-.02.25,0,.37.09.07.05.13.11.17.17.04.06.09.14.13.24.02.05.04.1.07.14.03.04.06.08.09.1.08.06.2.07.35.02.15-.04.31-.11.47-.21-.11-.09-.18-.19-.22-.29-.04-.1-.03-.25.02-.44l.61-2.43c.02-.1.03-.19.02-.28s-.03-.18-.07-.29c-.03-.08-.05-.15-.05-.2,0-.05,0-.1.04-.14.07-.09.16-.1.27-.01.1.07.19.14.27.22.22.18.36.28.4.31l.02.02c.13.09.25.17.36.23.12.07.2.13.25.16.05.04.08.07.09.11,0,.04,0,.08-.03.12-.02.03-.04.05-.07.06-.03.01-.05.02-.08.03-.03,0-.05.01-.06.02-.06.01-.12.02-.16.04-.04.02-.08.05-.11.09-.03.04-.05.1-.07.17l-.47,1.88,1.53-1.02c.06-.04.11-.08.14-.12.04-.05.06-.1.06-.15,0-.05,0-.11-.01-.18,0-.01,0-.04-.01-.08s0-.08,0-.11c0-.03.02-.06.04-.09.07-.09.16-.1.27-.02.07.05.19.15.34.28.12.07.23.14.33.21.11.08.13.16.07.24-.03.04-.06.06-.1.07-.04,0-.11.01-.2.02-.11,0-.2,0-.28.02s-.15.04-.23.1l-2.31,1.48c-.35.23-.65.4-.92.52s-.51.19-.75.21c-.24.02-.46-.05-.66-.19-.17-.12-.28-.26-.33-.42Z"/><path class="b" d="M42.66,13.82c-.14-.25-.22-.46-.26-.64-.04-.17-.03-.29.03-.36.38-.44.63-.71.74-.81.05-.04.09-.03.12.01.02.03.02.16-.02.39-.06.4-.08.77-.06,1.1.02.33.14.63.35.89.14.17.29.27.45.31.16.03.29,0,.41-.1.11-.09.18-.22.21-.38.03-.17.04-.34.02-.53s-.05-.44-.09-.76c-.06-.38-.1-.69-.12-.94s0-.49.06-.71c.05-.23.17-.42.34-.56.18-.15.4-.23.64-.23s.51.09.8.26c.29.17.59.44.89.8.28.33.47.62.59.86.11.24.14.41.07.5-.35.44-.56.68-.63.74-.05.04-.1.04-.14,0-.03-.03-.04-.08-.04-.15,0-.07.01-.18.03-.33.03-.32.04-.6.01-.84-.02-.24-.11-.45-.27-.64-.16-.19-.31-.3-.45-.35s-.27-.02-.38.08c-.13.11-.19.28-.19.51s.04.56.11.99c.07.39.11.72.13.98.02.26,0,.52-.06.76s-.19.46-.38.62c-.34.28-.71.36-1.12.23-.41-.13-.81-.43-1.2-.9-.23-.28-.42-.54-.56-.79Z"/><path class="b" d="M44.75,16.22c.04-.23.18-.41.43-.55.23-.13.47-.15.73-.08s.51.22.76.45.48.51.68.84l.4-.23c.21-.12.35-.23.42-.34.07-.11.06-.23,0-.35-.06-.1-.13-.16-.22-.18-.09-.02-.22-.03-.39-.03-.18,0-.32-.01-.43-.04-.11-.03-.2-.1-.26-.22-.06-.1-.07-.2-.04-.3.03-.1.09-.18.18-.23.22-.12.46-.11.72.05.26.15.5.42.71.8.24.42.34.82.31,1.18-.03.37-.25.66-.64.88l-1.06.6c-.15.08-.25.16-.31.23-.06.07-.11.16-.16.25-.02.04-.04.07-.06.1-.02.03-.05.06-.07.07-.05.03-.09.03-.13,0-.04-.03-.1-.09-.16-.19l-.29-.41c-.15-.2-.25-.35-.3-.44-.03-.05-.03-.09-.02-.13.02-.04.06-.08.13-.12l.21-.12c-.18-.04-.35-.13-.52-.25-.17-.13-.32-.31-.45-.54-.14-.24-.19-.48-.15-.7ZM45.64,16.86c-.03.11-.01.23.06.35.05.1.13.17.22.22s.19.08.3.09l.9-.51c-.17-.24-.37-.4-.6-.49s-.44-.07-.63.04c-.13.08-.22.17-.25.28Z"/><path class="b" d="M46.54,19.51c.09-.21.29-.37.61-.49l1.67-.59c.09-.03.16-.08.21-.13.05-.05.09-.13.13-.21,0-.01.02-.03.04-.07.02-.03.04-.06.06-.08.02-.02.04-.04.07-.05.05-.02.09-.02.12,0s.06.05.08.11c.02.05.05.14.08.27.02.11.06.23.11.38l.21.6c.03.08.01.13-.05.16-.01,0-.05,0-.12,0-.07,0-.14.02-.21.04l-1.94.68c-.15.05-.25.13-.31.22-.05.09-.06.2-.02.31.03.08.09.14.18.2.09.05.2.1.33.12l1.71-.6c.09-.03.16-.08.21-.13.05-.05.09-.13.13-.21,0-.01.02-.03.04-.07.02-.03.04-.06.06-.08.02-.02.04-.04.07-.05.05-.02.09-.02.12,0s.06.05.08.11c.02.06.05.15.08.27.03.12.06.25.11.39l.21.6c.03.08.01.13-.05.16-.01,0-.05,0-.12,0-.07,0-.14.02-.21.04l-1.87.66c-.16.06-.27.11-.35.18-.07.06-.14.14-.2.22-.06.08-.11.12-.16.14-.05.02-.1,0-.14-.03-.04-.04-.08-.1-.12-.2-.08-.22-.18-.43-.28-.62-.07-.13-.12-.24-.15-.32-.02-.05-.02-.09,0-.13.02-.03.07-.06.15-.09l.35-.12c-.21-.06-.4-.16-.56-.3-.17-.14-.29-.32-.37-.54-.1-.29-.11-.54-.02-.75Z"/><path class="b" d="M47.76,23.64c.09-.32.25-.58.48-.81.23-.22.54-.36.91-.42.4-.06.75-.02,1.06.12.3.14.55.36.73.64.19.28.31.6.36.96.05.31.05.58,0,.82s-.13.43-.25.57-.26.23-.43.25c-.12.02-.23,0-.31-.06-.09-.06-.14-.15-.16-.27-.02-.13,0-.24.06-.33.06-.09.15-.19.28-.3.12-.11.22-.21.28-.3s.08-.19.06-.31c-.04-.23-.17-.4-.4-.51-.23-.11-.53-.14-.9-.08-.32.05-.58.15-.78.29s-.33.31-.4.5c-.07.19-.09.4-.06.61.03.16.08.31.17.45.09.14.18.24.27.33.09.09.13.16.11.2-.01.02-.03.03-.05.03-.04,0-.08,0-.14-.03-.24-.11-.45-.27-.62-.48-.17-.21-.28-.5-.34-.88-.05-.33-.04-.66.05-.97Z"/><path class="b" d="M48.15,27.21c.14-.3.35-.53.62-.71.27-.18.59-.27.97-.26.41,0,.75.11,1.03.3s.48.44.61.75c.13.31.19.65.19,1.01,0,.28-.05.53-.15.77-.09.23-.22.42-.39.56-.17.14-.36.21-.58.2-.26,0-.47-.11-.6-.3-.14-.2-.2-.49-.2-.88l.02-1.13c-.4.02-.7.14-.9.35-.2.21-.31.46-.31.76,0,.19.02.35.07.49.05.13.12.26.22.38.08.11.1.19.06.23-.02.02-.04.03-.06.03-.03,0-.07-.02-.12-.06-.47-.34-.7-.84-.69-1.51,0-.34.08-.66.22-.96ZM49.97,28.11c0,.21.04.37.14.49.1.12.23.18.41.18.15,0,.28-.04.38-.13.1-.09.15-.21.16-.37,0-.21-.08-.39-.26-.53-.18-.14-.45-.23-.82-.25v.6Z"/><path class="b" d="M12.16,47.32c-.1-.06-.2-.11-.29-.17-.09-.06-.11-.13-.06-.21.02-.03.05-.05.1-.06.04-.01.1-.02.17-.02.12,0,.22-.02.3-.05.08-.03.15-.09.21-.18l1.65-2.4c.06-.09.09-.18.09-.27,0-.09-.02-.18-.06-.3-.02-.08-.03-.14-.04-.18,0-.03,0-.07.03-.1.05-.08.13-.09.22-.02.04.03.12.09.24.18.09.08.17.14.26.2l1.53,1.05c.4.27.64.58.73.91.09.33.01.68-.24,1.04-.25.36-.54.55-.88.57s-.72-.11-1.14-.4l-.76-.52-.62.91c-.06.09-.09.18-.09.27,0,.09.02.19.06.3.02.08.03.14.04.18,0,.03,0,.07-.03.1-.05.08-.13.09-.22.02-.04-.03-.12-.09-.24-.18-.09-.08-.17-.14-.26-.2l-.45-.31s-.13-.08-.25-.15ZM14.83,46.35c.23.16.44.22.61.18.18-.04.36-.2.55-.47.14-.21.23-.39.27-.53.03-.14.02-.27-.04-.38-.06-.11-.17-.22-.33-.33l-.4-.28-1.06,1.54.39.27Z"/><path class="b" d="M16.67,50.11c-.12-.04-.21-.08-.25-.1-.05-.02-.08-.05-.1-.08s-.01-.07,0-.11c.01-.03.03-.06.06-.08.03-.02.05-.03.08-.05.03-.01.05-.02.06-.02.09-.03.16-.07.21-.11.05-.04.1-.1.14-.19l.62-1.42c.04-.1.07-.19.06-.26,0-.07-.02-.15-.04-.23-.03-.08-.04-.14-.02-.18.02-.05.06-.08.12-.09.06-.01.13,0,.22.03.11.04.21.07.3.08s.21.02.36.03c.15,0,.27.02.34.05.05.02.08.05.09.09,0,.04,0,.09-.03.16l-.13.3c.17-.1.35-.16.55-.18.2-.02.39,0,.58.09.17.07.28.17.35.29.06.12.07.25,0,.4-.05.12-.12.2-.21.24-.09.04-.19.04-.3,0-.07-.03-.12-.07-.16-.12s-.07-.11-.11-.2c-.03-.08-.07-.14-.1-.19-.04-.05-.08-.09-.15-.11-.18-.08-.38-.03-.6.14l-.67,1.54c-.04.09-.05.16-.04.23,0,.07.03.14.06.23,0,.01.01.03.02.07.01.04.02.07.02.09s0,.05-.01.08c-.04.09-.11.11-.21.07-.06-.02-.14-.06-.24-.12-.09-.06-.21-.11-.34-.17l-.16-.07c-.13-.06-.25-.1-.35-.13Z"/><path class="b" d="M21.07,51.63c-.25-.2-.44-.44-.55-.73s-.13-.62-.04-.98c.08-.35.24-.62.47-.84.23-.21.51-.35.82-.41.31-.06.63-.06.96.02.32.07.6.21.85.4.25.19.42.43.53.72.11.29.13.61.04.96-.08.36-.24.65-.46.87-.22.22-.49.36-.79.43-.31.07-.62.06-.95-.01-.33-.08-.63-.21-.88-.41ZM21.63,51.17c.07.24.21.38.43.43.21.05.39-.02.54-.2.15-.18.28-.49.38-.94.09-.39.1-.7.04-.93-.06-.23-.19-.37-.39-.42-.2-.05-.39.02-.56.21s-.3.47-.39.84c-.1.43-.12.77-.05,1.01Z"/><path class="b" d="M27.35,52.63s-.03-.09-.03-.16v-.1s-.04,0-.04,0c-.06.08-.16.15-.29.21-.14.05-.29.08-.46.08-.22,0-.43-.07-.63-.19s-.38-.3-.51-.56c-.13-.26-.2-.58-.19-.98.01-.4.09-.73.25-.99.16-.26.35-.45.58-.56.23-.11.45-.17.68-.16.16,0,.28.02.38.05s.19.08.27.15h.05s.01-.5.01-.5c0-.1-.01-.19-.04-.25-.03-.06-.07-.12-.12-.17-.02-.03-.04-.05-.06-.08s-.02-.05-.02-.08c0-.05.03-.09.07-.12.05-.03.12-.05.22-.05.12,0,.22-.01.31-.03.09-.02.2-.05.34-.1.06-.02.12-.04.18-.05.06-.02.11-.02.16-.02.05,0,.09.02.11.05s.03.08.03.15l-.09,3.48c0,.16,0,.28.04.37.03.08.07.17.13.25.05.07.07.14.07.19,0,.05-.02.09-.07.11-.04.02-.12.04-.22.04,0,0-.15.01-.44.03-.26.02-.45.03-.55.03-.05,0-.09-.02-.11-.05ZM26.54,51.91c.09.21.22.31.39.31.11,0,.2-.05.28-.16.07-.11.12-.27.14-.49l.04-1.59c-.02-.1-.06-.19-.12-.24s-.13-.09-.21-.09c-.4-.01-.61.43-.63,1.33-.01.41.03.72.12.93Z"/><path class="b" d="M30.43,52.33c-.18-.12-.3-.33-.36-.65l-.28-1.66c-.02-.09-.05-.17-.09-.22-.04-.05-.1-.1-.18-.16,0,0-.03-.02-.06-.05-.03-.02-.05-.05-.07-.07-.02-.02-.03-.05-.03-.08,0-.05,0-.08.02-.11.02-.03.06-.05.12-.06.05,0,.14-.02.27-.03.1,0,.23-.02.37-.04l.59-.1c.08-.01.13.01.14.08,0,.01,0,.05-.01.11,0,.06,0,.13,0,.2l.32,1.92c.02.15.08.26.15.32.08.07.17.09.29.07.08-.01.15-.06.21-.13.07-.08.12-.17.17-.29l-.29-1.7c-.02-.09-.05-.17-.09-.22s-.1-.1-.18-.16c-.01,0-.03-.02-.06-.05-.03-.02-.05-.05-.07-.07-.02-.02-.03-.05-.03-.08,0-.05,0-.08.02-.11.02-.03.06-.05.12-.06.06,0,.14-.02.26-.03.11,0,.24-.02.38-.04l.59-.1c.08-.01.13.01.14.08,0,.01,0,.05-.01.11,0,.06,0,.13,0,.2l.31,1.85c.03.16.06.28.11.35.05.08.1.15.17.22.06.06.1.12.11.17,0,.05,0,.09-.05.13-.04.03-.11.06-.21.08-.22.04-.43.1-.63.17-.14.04-.25.07-.33.09-.05,0-.09,0-.12-.03-.03-.03-.05-.08-.06-.15l-.06-.35c-.09.19-.22.35-.37.48-.16.13-.35.22-.57.25-.29.05-.52.01-.7-.1Z"/><path class="b" d="M35.61,51.16c-.31-.02-.59-.12-.84-.3-.25-.18-.44-.43-.56-.77-.13-.36-.16-.69-.09-1,.08-.31.23-.58.46-.8.23-.23.5-.4.82-.52.28-.1.53-.16.76-.16.23,0,.42.04.58.13.15.09.26.2.32.35.04.11.04.21,0,.3s-.11.16-.22.2c-.12.04-.22.05-.32,0-.1-.04-.21-.11-.34-.2s-.24-.16-.33-.2c-.09-.04-.19-.04-.3,0-.21.08-.34.23-.4.46s-.03.52.1.85c.11.29.25.52.42.67.17.16.35.25.54.28.19.03.39.01.58-.06.15-.05.27-.13.38-.24.11-.11.19-.21.25-.32.07-.1.12-.15.16-.14.02,0,.03.02.04.04.01.03.01.08,0,.13-.06.25-.17.47-.33.66-.16.19-.41.36-.75.48-.3.11-.6.16-.91.14Z"/><path class="b" d="M39.21,49.54c-.23-.05-.42-.23-.59-.53l-.83-1.47c-.05-.09-.1-.15-.15-.18-.05-.03-.11-.05-.18-.07-.03,0-.06-.02-.08-.03-.03-.01-.04-.03-.06-.05-.02-.04-.02-.08-.01-.12s.05-.07.09-.1c.08-.04.14-.12.18-.24s.07-.26.1-.45c.02-.16.05-.28.08-.36s.06-.14.11-.17c.07-.04.13-.04.18-.01s.11.1.17.2l.25.43.55-.31c.06-.04.12-.04.17-.02s.1.08.15.17c.08.14.07.24-.03.3-.04.02-.08.04-.12.04-.04,0-.09,0-.15-.01-.06-.01-.12-.01-.17-.01-.05,0-.11.02-.16.05l-.1.06,1,1.78c.08.15.16.24.23.27.07.03.15.03.23-.02.06-.04.12-.09.17-.17.05-.07.09-.15.12-.23.02-.05.05-.08.07-.09.03-.02.05-.01.07.02.01.03.02.08.01.16-.02.22-.08.42-.17.6s-.24.33-.45.44c-.23.13-.46.17-.68.12Z"/><path class="b" d="M42.4,47.71c-.22.1-.39.17-.54.19-.14.03-.23.02-.27-.02-.28-.24-.47-.42-.56-.54-.02-.02-.02-.04-.02-.06,0-.02.01-.04.03-.05.03-.03.09-.04.15-.04.07,0,.17,0,.3,0,.29,0,.55,0,.78-.04s.43-.13.63-.28c.09-.08.15-.15.17-.23.02-.08,0-.16-.05-.23-.08-.1-.21-.15-.39-.14s-.42.05-.74.13c-.27.06-.5.11-.68.13s-.35.02-.52-.01c-.17-.03-.31-.11-.41-.25-.18-.22-.2-.49-.06-.81s.41-.64.82-.96c.28-.22.52-.38.73-.47.21-.09.34-.11.4-.08.31.19.51.34.61.45.04.05.04.09,0,.12-.04.03-.09.05-.16.06-.07,0-.17.01-.3.01-.24,0-.45.03-.62.06-.17.03-.33.1-.47.22-.09.07-.15.15-.18.22-.02.07-.01.13.04.19.07.08.18.12.33.11s.37-.06.66-.13c.29-.07.52-.12.72-.15s.38-.02.57.01c.18.04.34.13.46.29.19.24.23.53.1.86-.13.33-.4.65-.8.97-.25.2-.48.35-.69.45Z"/><circle class="b" cx="7.97" cy="38.31" r="2.1"/><circle class="b" cx="47.19" cy="38.31" r="2.1"/></svg>