<?xml version="1.0" encoding="UTF-8"?>
<svg id="Layer_2" data-name="Layer 2" xmlns="http://www.w3.org/2000/svg" viewBox="0 0 652.07 633.57">
  <defs>
    <style>
      .cls-1 {
        fill: #fff;
        stroke-width: 0px;
      }
    </style>
  </defs>
  <g id="Layer_1-2" data-name="Layer 1">
    <g>
      <g>
        <path class="cls-1" d="M316.79,232.1c15.15,0,27.47-12.32,27.47-27.47s-12.32-27.47-27.47-27.47-27.47,12.32-27.47,27.47,12.32,27.47,27.47,27.47Z"/>
        <path class="cls-1" d="M316.78,281.62c-25.7,0-49.83,10-67.95,28.15-18.17,18.17-28.17,42.3-28.17,67.97,0,30.62,14.78,59.67,39.54,77.7,1.66,1.2,4.09,1.33,6.35.33,6.33-2.8,12.83-5.03,19.47-6.72-13.09-3.47-21.75-11.08-23.51-12.67-19.07-17.27-18.59-41.18-18.46-44.66,20.45,10.17,36.27,10.91,46.51,9.97,28.45-2.63,41.64-20.9,69.4-19.19,13.16.81,23.48,5.73,29.55,9.23-2.6.61-6.42,1.69-10.73,3.69-17.26,8.01-20.82,20.65-33.22,33.22-2.57,2.61-10.91,11.05-23.09,16.73,15.44.69,30.39,4.18,44.52,10.41,2.29,1.02,4.71.87,6.45-.4,5.3-3.87,10.25-8.34,14.7-13.27,15.96-17.65,24.74-40.5,24.74-64.36,0-25.66-10-49.79-28.16-67.96-18.13-18.16-42.25-28.16-67.95-28.16Z"/>
        <path class="cls-1" d="M316.78,110.83c-113.74,0-205.95,92.21-205.95,205.95s92.21,205.95,205.95,205.95,205.95-92.21,205.95-205.95-92.21-205.95-205.95-205.95ZM409.41,461.28c-5.76,6.38-12.17,12.17-19.07,17.21-9.93,7.25-23.31,8.58-34.9,3.47-12.19-5.38-25.2-8.11-38.66-8.11s-26.47,2.73-38.66,8.11c-4.69,2.06-9.66,3.08-14.58,3.08-7.22,0-14.31-2.19-20.18-6.46-32.14-23.4-51.33-61.1-51.33-100.85,0-33.31,12.98-64.63,36.55-88.2,17.75-17.79,39.96-29.55,64.14-34.24-18.93-9.02-32.04-28.34-32.04-50.66,0-30.94,25.17-56.1,56.1-56.1s56.1,25.17,56.1,56.1c0,22.32-13.11,41.64-32.04,50.66,24.17,4.69,46.39,16.45,64.15,34.25,23.56,23.56,36.53,54.89,36.53,88.19,0,30.96-11.41,60.63-32.12,83.55Z"/>
      </g>
      <path class="cls-1" d="M316.79,633.57C142.11,633.57,0,491.46,0,316.78S142.11,0,316.79,0s316.78,142.11,316.78,316.78-142.11,316.78-316.78,316.78ZM316.79,4.04C144.34,4.04,4.04,144.34,4.04,316.78s140.3,312.75,312.75,312.75,312.75-140.3,312.75-312.75S489.23,4.04,316.79,4.04Z"/>
      <g>
        <path class="cls-1" d="M80.82,322.03c.13,1.42.19,2.81.17,4.18,0,.68-.16,1.18-.46,1.49-.29.31-.73.46-1.31.45-.47,0-.9-.18-1.29-.53-.39-.35-.84-.87-1.35-1.56-.87-1.17-1.71-2.06-2.52-2.68s-1.89-.94-3.25-.96l-40.71-.66-.05,3.07c-.03,2,.54,3.7,1.73,5.11,1.19,1.41,2.79,2.84,4.82,4.29,1.35,1.02,2.31,1.81,2.87,2.37.57.56.85,1.16.84,1.78-.01.68-.36,1.02-1.04,1.01-.79-.01-2.17-.27-4.16-.78-2.72-.78-5.05-1.18-6.99-1.21-1.1-.02-1.85-.26-2.23-.71-.39-.45-.57-1.26-.55-2.41l.65-39.92c.02-1.16.23-1.94.63-2.35.4-.41,1.15-.61,2.25-.59,1.94.03,4.28-.3,7.03-.99,2-.44,3.4-.65,4.18-.64.32,0,.56.1.74.29.18.19.27.41.27.67-.01.63-.34,1.25-.98,1.84-.64.59-1.6,1.33-2.87,2.2-2.12,1.44-3.79,2.84-4.99,4.21-1.2,1.37-1.82,3.06-1.85,5.05l-.05,2.91,40.63.66c1.36.02,2.47-.26,3.32-.85.85-.59,1.73-1.46,2.64-2.6.7-.77,1.2-1.31,1.52-1.59s.72-.42,1.19-.41c1.16.02,1.72.71,1.7,2.08l-.22,3.77c-.18,1.42-.28,2.7-.3,3.86l-.11,6.69c-.01.63.02,1.79.1,3.47Z"/>
        <path class="cls-1" d="M82.21,286.98c-.21,1.57-.37,2.65-.5,3.27-.26,1.29-.95,1.81-2.09,1.59-.41-.08-.76-.26-1.06-.54-.29-.27-.54-.55-.76-.83-.21-.28-.35-.49-.44-.61-.62-.93-1.23-1.67-1.84-2.22s-1.48-.94-2.61-1.17l-34.81-7.04c-1.23-.25-2.25-.26-3.05-.02-.8.24-1.57.61-2.31,1.1-.36.2-.7.37-1.03.52-.32.15-.64.19-.95.13-.57-.11-1-.5-1.3-1.15-.3-.65-.36-1.55-.18-2.69.23-1.4.32-2.65.28-3.76-.04-1.1-.19-2.52-.43-4.22-.11-.77-.2-1.53-.26-2.26s-.04-1.39.07-1.96c.12-.62.4-1.03.81-1.24.42-.21,1.04-.23,1.86-.07l20.92,4.23.05-.23c-2.07-1.44-3.64-3.33-4.71-5.69-1.07-2.36-1.33-4.96-.76-7.78,1.53-7.57,5.95-10.61,13.25-9.13l20.07,4.06c1.13.23,2.09.21,2.87-.06.78-.27,1.63-.71,2.56-1.33.12-.08.38-.23.77-.45.39-.21.75-.37,1.06-.47.32-.1.65-.11,1.01-.04,1.13.23,1.57.99,1.31,2.28-.13.62-.4,1.69-.81,3.21-.4,1.2-.79,2.71-1.15,4.51l-.41,2.01c-.36,1.8-.59,3.33-.69,4.6-.21,1.57-.37,2.66-.5,3.27-.26,1.29-.95,1.82-2.09,1.59-.41-.08-.76-.26-1.06-.54-.29-.27-.54-.55-.76-.84-.21-.28-.35-.49-.44-.61-.62-.93-1.23-1.66-1.84-2.22-.61-.55-1.48-.94-2.61-1.17l-19.3-3.9c-3.4-.69-5.34.18-5.83,2.6-.28,1.39.24,2.78,1.57,4.17,1.33,1.39,3.35,2.63,6.08,3.72l15.51,3.14c1.13.23,2.09.21,2.87-.07.78-.27,1.63-.71,2.56-1.33.12-.08.38-.23.77-.45.39-.22.75-.37,1.06-.47.32-.1.65-.11,1.01-.04,1.13.23,1.57.99,1.31,2.27-.13.62-.4,1.69-.81,3.21-.4,1.21-.79,2.71-1.15,4.51l-.41,2.01c-.36,1.8-.59,3.34-.69,4.6Z"/>
        <path class="cls-1" d="M93.59,236.03c-2.75,2.6-5.95,4.3-9.59,5.12-3.65.82-7.49.41-11.53-1.23-4.38-1.77-7.65-4.26-9.81-7.46-2.16-3.2-3.3-6.75-3.42-10.65-.12-3.9.61-7.8,2.18-11.69,1.2-2.97,2.79-5.53,4.76-7.67s4.14-3.62,6.51-4.42c2.36-.8,4.71-.73,7.05.22,2.82,1.14,4.56,3.07,5.22,5.77.66,2.71.14,6.15-1.55,10.33l-4.91,12.12c4.35,1.42,8.06,1.42,11.13,0,3.07-1.42,5.24-3.71,6.52-6.87.83-2.04,1.25-3.88,1.26-5.53.01-1.64-.24-3.29-.75-4.97-.35-1.5-.27-2.41.25-2.71.27-.11.53-.12.77-.02.34.14.7.51,1.08,1.12,3.69,5.57,4.08,11.96,1.16,19.16-1.48,3.65-3.59,6.77-6.34,9.37ZM77.72,218.78c.91-2.24,1.08-4.21.52-5.91-.56-1.7-1.76-2.92-3.61-3.67-1.65-.67-3.21-.73-4.68-.19s-2.53,1.64-3.2,3.29c-.91,2.24-.71,4.5.61,6.79,1.31,2.29,3.9,4.33,7.76,6.12l2.6-6.42Z"/>
        <path class="cls-1" d="M115.76,191.34c-.74,1.22-1.5,2.35-2.3,3.4-.83,1.08-1.7,1.27-2.62.57-.37-.29-.62-.69-.72-1.2-.11-.51-.16-1.19-.16-2.05,0-1.46-.15-2.68-.43-3.65-.28-.97-.96-1.87-2.04-2.71l-28.08-21.49c-1.08-.83-2.14-1.26-3.18-1.29-1.04-.03-2.26.14-3.67.52-1.02.21-1.75.34-2.17.37-.43.04-.83-.09-1.2-.37-.92-.7-.96-1.59-.13-2.68.35-.46,1.14-1.41,2.37-2.84.99-1.03,1.85-2.02,2.58-2.98l13.74-17.95c3.45-4.5,7.2-7.22,11.25-8.15,4.05-.93,8.02.09,11.89,3.06,2.75,2.11,4.55,4.64,5.39,7.6.84,2.96.53,5.83-.93,8.61,1.49-.91,3.31-1.27,5.48-1.06s4.73.78,7.7,1.73c7.76,2.56,12.82,3.07,15.2,1.52.99-.43,1.72-.47,2.17-.12.5.38.38,1.05-.35,2.01l-3.69,4.82c-1.95,2.54-3.81,4.35-5.6,5.43s-3.78,1.59-5.98,1.52c-2.2-.06-5-.63-8.4-1.72-4.52-1.34-8.07-2.09-10.63-2.24-2.57-.15-4.41.51-5.53,1.97l-1.82,2.38,12.51,9.58c1.08.83,2.14,1.26,3.18,1.29,1.04.03,2.26-.14,3.67-.51,1.02-.21,1.75-.34,2.17-.37.42-.04.83.09,1.2.37.92.7.96,1.6.13,2.68-.35.46-1.14,1.41-2.37,2.84-.99,1.03-1.85,2.03-2.58,2.99l-4.02,5.25c-.41.54-1.09,1.51-2.03,2.91ZM103.83,156.91c1.95-2.54,2.8-4.85,2.57-6.91s-1.71-4.14-4.42-6.21c-2.25-1.72-4.19-2.82-5.83-3.27-1.63-.45-3.1-.35-4.4.3-1.3.66-2.63,1.89-4.01,3.68l-3.59,4.69,16.13,12.35,3.54-4.63Z"/>
        <path class="cls-1" d="M153.48,144.63c-3.62,1.09-7.25,1.19-10.87.28-3.63-.9-6.88-2.98-9.76-6.25-3.12-3.55-4.94-7.23-5.44-11.06-.5-3.83.07-7.51,1.71-11.05,1.64-3.54,4.03-6.7,7.19-9.48,2.4-2.12,4.97-3.69,7.69-4.73,2.73-1.04,5.32-1.38,7.79-1.04,2.47.34,4.54,1.46,6.21,3.35,2.01,2.28,2.71,4.78,2.09,7.5-.62,2.71-2.62,5.56-6.01,8.55l-9.81,8.64c3.25,3.22,6.57,4.88,9.95,4.98,3.38.1,6.35-.97,8.91-3.23,1.66-1.46,2.86-2.91,3.6-4.37s1.26-3.05,1.56-4.78c.35-1.5.83-2.27,1.43-2.31.3.02.53.13.7.33.24.28.4.77.47,1.48.81,6.63-1.71,12.52-7.54,17.66-2.96,2.6-6.24,4.45-9.86,5.54ZM147.02,122.09c1.81-1.6,2.85-3.28,3.11-5.05.26-1.77-.27-3.4-1.59-4.9-1.18-1.34-2.55-2.09-4.1-2.27-1.55-.17-3,.33-4.34,1.51-1.81,1.6-2.64,3.71-2.49,6.34.15,2.63,1.55,5.62,4.2,8.94l5.2-4.58Z"/>
        <path class="cls-1" d="M178.05,123.49c-2.63-.33-4.81-1.91-6.53-4.73-1.56-2.55-1.97-5.34-1.24-8.38.73-3.03,2.36-6.03,4.89-8.99,2.53-2.96,5.68-5.68,9.45-8.17l-2.79-4.57c-1.45-2.37-2.81-3.92-4.09-4.65-1.27-.73-2.63-.65-4.06.22-1.12.69-1.79,1.57-2.02,2.67-.23,1.09-.3,2.6-.23,4.52.08,2.05-.04,3.7-.34,4.96-.31,1.26-1.13,2.3-2.47,3.13-1.12.68-2.26.89-3.41.61-1.15-.28-2.06-.96-2.72-2.03-1.5-2.46-1.43-5.23.23-8.31,1.66-3.08,4.62-5.91,8.88-8.51,4.79-2.93,9.3-4.28,13.53-4.06,4.23.22,7.71,2.57,10.44,7.05l7.31,11.96c1.01,1.66,1.95,2.82,2.82,3.49.87.67,1.86,1.25,2.96,1.75.42.18.82.38,1.2.6.38.23.67.5.86.81.33.54.34,1.06.03,1.55s-1,1.13-2.06,1.9l-4.58,3.53c-2.23,1.79-3.88,3.02-4.96,3.67-.54.33-1.03.41-1.46.25-.44-.16-.9-.65-1.4-1.45l-1.48-2.42c-.42,2.04-1.32,4.08-2.72,6.13s-3.39,3.87-5.99,5.46c-2.73,1.67-5.42,2.34-8.05,2.01ZM185.02,113c1.32.3,2.68.03,4.06-.82,1.08-.66,1.89-1.52,2.43-2.59.55-1.07.86-2.25.94-3.53l-6.2-10.15c-2.72,2.09-4.51,4.45-5.38,7.07-.86,2.62-.61,5.05.76,7.29.93,1.52,2.05,2.43,3.38,2.73Z"/>
        <path class="cls-1" d="M217.03,103c-1.4.73-2.39,1.22-2.97,1.47-1.2.53-2.03.26-2.5-.79-.17-.39-.22-.78-.17-1.18.05-.39.14-.76.25-1.1s.19-.57.25-.71c.4-1.04.65-1.97.76-2.78s-.08-1.75-.55-2.81l-14.29-32.52c-.51-1.16-1.09-1.99-1.75-2.5-.65-.51-1.4-.93-2.23-1.25-.37-.19-.71-.36-1.01-.54-.31-.18-.53-.41-.65-.7-.23-.53-.17-1.1.19-1.72.36-.62,1.06-1.18,2.09-1.7,1.28-.62,2.35-1.26,3.23-1.94.88-.67,1.95-1.6,3.21-2.78.57-.54,1.13-1.04,1.7-1.52.56-.47,1.11-.83,1.64-1.06.58-.26,1.07-.27,1.48-.05.41.22.79.71,1.12,1.48l18.09,41.17c.47,1.06,1.03,1.83,1.7,2.31s1.52.92,2.56,1.33c.14.06.41.18.81.37.4.2.73.4.99.6.26.21.47.47.61.81.47,1.06.09,1.85-1.11,2.38-.58.25-1.61.65-3.09,1.19-1.22.36-2.67.91-4.35,1.65l-1.88.82c-1.68.74-3.07,1.43-4.16,2.08Z"/>
        <path class="cls-1" d="M251.41,89.43c-1.35.44-2.68.8-3.96,1.06-1.34.28-2.12-.15-2.36-1.28-.1-.46-.02-.92.24-1.38.25-.45.66-1.01,1.22-1.66.95-1.11,1.64-2.12,2.06-3.04.42-.92.5-2.05.22-3.38l-7.2-34.62c-.28-1.33-.8-2.35-1.56-3.05s-1.8-1.37-3.11-2.01c-.91-.51-1.54-.89-1.89-1.14-.35-.25-.57-.61-.66-1.07-.23-1.13.32-1.84,1.65-2.11.56-.12,1.78-.32,3.66-.6,1.42-.13,2.72-.32,3.9-.57l32.92-6.84c1.13-.24,1.94-.2,2.44.1.49.3.85.99,1.07,2.07.37,1.8,1.21,4.01,2.51,6.64.85,1.75,1.36,3.07,1.54,3.94.14.67-.1,1.07-.72,1.19-.62.13-1.3-.04-2.03-.5s-1.65-1.23-2.73-2.29c-1.98-1.79-3.77-3.12-5.38-3.99-1.6-.88-3.43-1.1-5.49-.67l-12.72,2.65,4.22,20.28,10.41-2.17c1.18-.24,2.03-.86,2.55-1.86.52-.99.97-2.33,1.37-4.03.27-1.02.49-1.76.66-2.23s.44-.73.8-.81c.87-.18,1.47.5,1.79,2.04.26,1.23.44,2.48.54,3.75.22,1.56.41,2.73.57,3.5.16.77.45,1.92.88,3.44.42,1.25.79,2.62,1.1,4.11.32,1.54.04,2.41-.83,2.59-.36.07-.71-.07-1.05-.43-.34-.35-.84-.95-1.5-1.78-1.04-1.39-2-2.44-2.87-3.15-.87-.7-1.9-.93-3.08-.69l-10.41,2.17,3.13,15.03c.28,1.34.8,2.36,1.56,3.06.76.7,1.8,1.37,3.11,2.01.91.51,1.54.89,1.89,1.14.35.25.57.61.66,1.07.23,1.13-.32,1.83-1.65,2.11-.57.12-1.78.32-3.66.6-1.42.13-2.72.32-3.9.57l-6.48,1.35c-.67.14-1.82.43-3.44.88Z"/>
        <path class="cls-1" d="M291.46,80.21c-2.12-1.59-3.24-4.04-3.34-7.34-.09-2.99.93-5.62,3.06-7.9,2.14-2.27,5.04-4.07,8.7-5.39,3.66-1.32,7.75-2.13,12.26-2.43l-.17-5.35c-.09-2.78-.5-4.8-1.25-6.07-.75-1.26-1.96-1.87-3.64-1.82-1.31.04-2.34.48-3.07,1.32s-1.55,2.11-2.44,3.82c-.94,1.81-1.86,3.2-2.75,4.14-.89.95-2.12,1.45-3.7,1.49-1.31.04-2.4-.35-3.27-1.16-.87-.81-1.32-1.85-1.36-3.11-.09-2.88,1.35-5.25,4.31-7.11,2.96-1.85,6.94-2.85,11.92-3.01,5.61-.17,10.2.88,13.77,3.16,3.56,2.28,5.43,6.05,5.59,11.29l.43,14.01c.06,1.94.3,3.42.73,4.43.43,1.01.99,2.01,1.71,2.98.27.36.52.73.74,1.12.22.39.34.77.35,1.13.02.63-.23,1.08-.75,1.36-.52.28-1.43.49-2.74.64l-5.73.8c-2.82.46-4.86.7-6.12.74-.63.02-1.09-.15-1.39-.51s-.46-1.01-.49-1.95l-.09-2.84c-1.37,1.57-3.17,2.89-5.39,3.99-2.23,1.09-4.86,1.69-7.9,1.78-3.2.1-5.86-.65-7.99-2.24ZM302.71,74.54c1,.91,2.31,1.35,3.94,1.3,1.26-.04,2.39-.39,3.39-1.05,1-.66,1.86-1.53,2.56-2.6l-.37-11.89c-3.4.47-6.12,1.64-8.17,3.48-2.04,1.85-3.02,4.09-2.94,6.71.06,1.78.58,3.13,1.58,4.05Z"/>
        <path class="cls-1" d="M334.48,79.81c-1.56-.21-2.66-.37-3.27-.5-1.29-.26-1.82-.95-1.59-2.09.08-.41.26-.77.53-1.06s.55-.54.84-.76c.28-.21.49-.35.61-.44.93-.62,1.67-1.23,2.22-1.85.55-.61.94-1.49,1.17-2.62l3.7-18.45c.27-1.34.3-2.42.09-3.24-.21-.82-.57-1.68-1.09-2.59-.2-.36-.36-.71-.51-1.06s-.18-.71-.11-1.06c.12-.62.51-1.09,1.17-1.42.65-.32,1.55-.4,2.7-.22,1.4.23,2.66.3,3.77.23s2.55-.25,4.33-.54c1.84-.38,3.23-.48,4.15-.29.62.12,1.03.39,1.24.81.21.41.22,1.09.04,2.02l-1.08,5.4.23.05c1.43-2.07,3.33-3.64,5.69-4.72,2.36-1.08,4.95-1.33,7.78-.77,6.38,1.28,9.56,4.65,9.54,10.1l.16.03c1.63-1.98,3.56-3.53,5.79-4.66,2.23-1.13,5.02-1.36,8.37-.69,3.4.68,5.9,2.09,7.5,4.24,1.61,2.15,2.03,5.12,1.26,8.93l-4.03,20.08c-.23,1.13-.21,2.09.07,2.86.27.78.72,1.63,1.33,2.56.08.12.23.38.45.77.21.39.37.74.47,1.06.1.32.11.65.04,1.01-.23,1.14-.99,1.57-2.27,1.31-.62-.12-1.69-.39-3.21-.8-1.2-.4-2.71-.78-4.51-1.15l-2.01-.4c-1.8-.36-3.33-.59-4.6-.68-1.56-.21-2.66-.37-3.27-.49-1.29-.26-1.82-.95-1.59-2.09.08-.41.26-.77.53-1.06.27-.3.55-.55.83-.76.28-.21.49-.36.61-.44.93-.62,1.66-1.23,2.22-1.84.55-.62.94-1.49,1.17-2.62l3.85-19.23c.69-3.45-.15-5.41-2.51-5.89-1.44-.29-2.86.22-4.24,1.52-1.39,1.3-2.6,3.21-3.64,5.74l-3.19,15.9c-.23,1.13-.21,2.09.07,2.87.27.78.72,1.63,1.33,2.56.08.12.23.38.45.77.21.39.37.75.47,1.06.1.32.11.65.04,1.01-.23,1.13-.99,1.57-2.27,1.31-.62-.12-1.69-.39-3.21-.8-1.2-.4-2.71-.78-4.51-1.14l-2.01-.4c-1.8-.36-3.34-.59-4.6-.68-1.57-.21-2.66-.37-3.28-.5-1.29-.26-1.82-.95-1.59-2.09.08-.41.26-.77.53-1.06.27-.3.55-.54.83-.76.28-.21.49-.36.61-.44.93-.62,1.66-1.23,2.22-1.84.55-.62.94-1.49,1.17-2.62l3.87-19.3c.68-3.4-.19-5.34-2.61-5.82-1.39-.28-2.78.25-4.17,1.57-1.39,1.33-2.63,3.36-3.71,6.09l-3.11,15.52c-.23,1.13-.21,2.09.07,2.87.27.78.72,1.63,1.33,2.56.08.13.23.38.45.77.21.39.37.75.47,1.06.1.32.11.65.04,1.01-.23,1.13-.98,1.57-2.27,1.31-.62-.12-1.69-.39-3.21-.8-1.2-.4-2.71-.78-4.51-1.14l-2.01-.4c-1.8-.36-3.33-.59-4.6-.68Z"/>
        <path class="cls-1" d="M401.51,96.61c-1.5-.5-2.54-.87-3.12-1.11-.63-.26-1.04-.58-1.22-.97s-.16-.85.06-1.38c.16-.39.4-.7.73-.93.32-.24.64-.43.96-.58.32-.15.54-.26.68-.31,1.03-.43,1.87-.89,2.53-1.39.66-.49,1.21-1.27,1.65-2.34l7.17-17.4c.52-1.26.75-2.31.71-3.16-.05-.84-.24-1.76-.57-2.75-.4-.96-.49-1.7-.27-2.24.24-.58.72-.96,1.45-1.15.73-.18,1.64-.07,2.73.32,1.33.49,2.55.81,3.65.95,1.1.15,2.55.24,4.35.3,1.88-.02,3.26.15,4.13.51.58.24.94.59,1.06,1.04.13.45,0,1.11-.35,1.98l-11.1,26.94c-.44,1.07-.6,2.01-.48,2.83.12.82.39,1.74.82,2.76.06.14.15.42.29.84.14.43.22.8.26,1.13.04.33-.02.66-.16,1-.44,1.07-1.27,1.35-2.48.85-.68-.28-1.68-.75-3-1.41-1.15-.65-2.56-1.31-4.2-1.99l-1.97-.81c-1.65-.68-3.09-1.19-4.31-1.52ZM419.16,52.66c-.89-2.04-.92-4.06-.1-6.05.8-1.94,2.23-3.31,4.29-4.11,2.06-.8,4.16-.76,6.3.12,2.13.88,3.65,2.33,4.55,4.35.9,2.02.95,3.99.15,5.94-.82,1.99-2.27,3.4-4.34,4.22-2.07.82-4.17.79-6.31-.09-2.14-.88-3.65-2.34-4.54-4.39Z"/>
        <path class="cls-1" d="M422.14,105.72c-1.44-.64-2.44-1.11-3-1.41-1.16-.62-1.47-1.43-.93-2.45.2-.37.47-.66.81-.86.35-.21.68-.37,1.02-.49s.57-.2.71-.25c1.06-.33,1.95-.71,2.65-1.14.7-.43,1.33-1.15,1.87-2.17l16.62-31.39c.59-1.12.88-2.09.88-2.92,0-.83-.14-1.68-.4-2.53-.08-.4-.15-.78-.2-1.13-.05-.35,0-.67.14-.95.27-.51.76-.81,1.47-.91.71-.1,1.58.09,2.63.59,1.28.62,2.45,1.06,3.53,1.33,1.07.27,2.46.53,4.17.78.77.11,1.52.24,2.25.39s1.34.35,1.85.62c.56.3.88.67.96,1.13.08.46-.07,1.06-.46,1.8l-21.05,39.74c-.54,1.02-.79,1.94-.75,2.76.04.82.22,1.77.55,2.83.04.15.11.43.21.87.09.43.15.82.15,1.15s-.08.65-.25.98c-.54,1.02-1.39,1.23-2.55.61-.56-.3-1.51-.86-2.85-1.69-1.04-.73-2.37-1.52-4-2.38l-1.81-.96c-1.62-.86-3.03-1.51-4.22-1.97Z"/>
        <path class="cls-1" d="M429.45,128.9c-.54-1.85-.21-3.6.99-5.26,1.05-1.45,2.33-2.3,3.85-2.56,1.52-.26,2.94.08,4.26,1.03.85.62,1.51,1.27,1.98,1.96.47.69.98,1.6,1.54,2.71.24.56.52,1.1.82,1.62.31.52.65.91,1.04,1.19.94.67,2.3.77,4.08.27,1.78-.49,3.57-1.32,5.38-2.47-1.26-1.04-2.1-2.17-2.52-3.38-.42-1.21-.36-2.91.19-5.11l7-27.98c.26-1.17.33-2.24.19-3.21-.14-.97-.4-2.09-.79-3.34-.34-.96-.54-1.74-.6-2.33-.06-.59.1-1.14.47-1.66.77-1.06,1.81-1.12,3.13-.17,1.11.8,2.15,1.65,3.12,2.54,2.59,2.07,4.12,3.27,4.59,3.6l.25.19c1.49,1.08,2.86,1.96,4.1,2.67,1.34.84,2.3,1.47,2.9,1.9.6.43.95.86,1.05,1.29.11.44-.02.91-.39,1.42-.25.34-.52.58-.81.72-.3.14-.62.25-.96.32-.35.08-.57.14-.67.19-.73.12-1.34.28-1.81.49-.48.21-.9.57-1.27,1.08-.34.47-.61,1.11-.82,1.94l-5.36,21.68,17.67-11.82c.72-.45,1.24-.91,1.58-1.38.43-.6.66-1.19.7-1.78.04-.59,0-1.29-.14-2.09-.02-.15-.06-.45-.12-.91-.06-.46-.05-.88.03-1.25.07-.37.21-.7.43-1,.77-1.06,1.79-1.13,3.07-.21.85.61,2.15,1.68,3.9,3.21,1.37.79,2.63,1.61,3.78,2.44,1.23.89,1.51,1.81.84,2.74-.31.43-.71.69-1.2.78-.49.1-1.26.16-2.31.18-1.28-.02-2.36.04-3.24.18-.88.14-1.76.51-2.64,1.1l-26.63,17.1c-4.02,2.6-7.54,4.61-10.56,6.01-3.02,1.41-5.92,2.22-8.69,2.42-2.77.2-5.3-.53-7.6-2.19-1.96-1.42-3.21-3.04-3.75-4.89Z"/>
        <path class="cls-1" d="M490.76,157.28c-1.59-2.88-2.59-5.32-3.01-7.34-.42-2.01-.32-3.38.31-4.11,4.41-5.12,7.25-8.22,8.54-9.3.52-.44,1-.39,1.44.13.27.32.19,1.82-.23,4.51-.67,4.6-.9,8.83-.68,12.68.21,3.86,1.57,7.28,4.06,10.26,1.65,1.97,3.37,3.15,5.16,3.54,1.79.38,3.35.02,4.68-1.1,1.25-1.04,2.05-2.52,2.41-4.42.35-1.9.44-3.96.24-6.16-.2-2.2-.56-5.13-1.09-8.79-.7-4.35-1.14-7.95-1.33-10.8s.02-5.6.65-8.24c.63-2.65,1.95-4.81,3.96-6.5,2.09-1.75,4.56-2.63,7.39-2.64s5.92.98,9.27,2.98c3.34,1.99,6.75,5.06,10.22,9.21,3.2,3.83,5.46,7.14,6.78,9.94,1.32,2.8,1.58,4.7.78,5.71-4.06,5.04-6.5,7.9-7.3,8.57-.6.5-1.14.48-1.61-.09-.3-.36-.45-.94-.43-1.74.01-.8.12-2.07.31-3.8.36-3.66.42-6.87.16-9.63-.26-2.76-1.3-5.23-3.11-7.41-1.82-2.17-3.57-3.5-5.24-3.99s-3.15-.19-4.44.89c-1.49,1.25-2.23,3.2-2.23,5.87,0,2.67.42,6.46,1.25,11.38.76,4.5,1.24,8.25,1.46,11.26.22,3-.03,5.94-.73,8.82s-2.18,5.27-4.44,7.15c-3.91,3.27-8.21,4.16-12.9,2.68-4.7-1.48-9.32-4.94-13.87-10.38-2.7-3.22-4.84-6.27-6.42-9.15Z"/>
        <path class="cls-1" d="M514.88,184.98c.42-2.62,2.08-4.74,4.96-6.36,2.61-1.47,5.41-1.78,8.42-.94,3,.84,5.94,2.58,8.81,5.21,2.87,2.63,5.48,5.88,7.83,9.74l4.67-2.63c2.43-1.36,4.02-2.67,4.8-3.92.77-1.25.75-2.6-.08-4.07-.64-1.14-1.51-1.85-2.59-2.11-1.08-.26-2.59-.39-4.52-.39-2.05,0-3.7-.17-4.95-.52-1.25-.35-2.26-1.21-3.04-2.58-.64-1.14-.81-2.29-.49-3.43.32-1.14,1.03-2.03,2.13-2.64,2.51-1.42,5.28-1.24,8.29.52,3.01,1.77,5.74,4.82,8.19,9.17,2.76,4.89,3.95,9.45,3.58,13.66-.37,4.21-2.84,7.61-7.42,10.18l-12.22,6.88c-1.69.95-2.89,1.85-3.59,2.7-.7.84-1.32,1.81-1.85,2.89-.19.41-.41.8-.65,1.18-.24.37-.52.65-.84.83-.55.31-1.07.3-1.55-.03-.49-.33-1.1-1.04-1.83-2.13l-3.37-4.7c-1.71-2.29-2.87-3.98-3.49-5.08-.31-.55-.37-1.04-.2-1.47.18-.43.68-.88,1.5-1.34l2.47-1.39c-2.02-.49-4.03-1.46-6.03-2.93-2-1.46-3.75-3.53-5.24-6.18-1.57-2.79-2.14-5.5-1.72-8.12ZM525.12,192.33c-.35,1.31-.12,2.67.68,4.09.62,1.1,1.45,1.94,2.5,2.52,1.05.58,2.21.94,3.49,1.06l10.36-5.84c-1.99-2.79-4.28-4.67-6.87-5.62-2.59-.95-5.02-.79-7.31.5-1.56.88-2.51,1.97-2.85,3.28Z"/>
        <path class="cls-1" d="M535.53,222.95c1.03-2.45,3.38-4.32,7.04-5.61l19.31-6.8c1.09-.38,1.9-.89,2.43-1.52.53-.63,1.03-1.45,1.51-2.45.06-.13.21-.39.44-.78.22-.39.45-.7.67-.95.22-.24.5-.43.85-.55.54-.19,1.01-.19,1.38.01s.68.62.91,1.27c.21.59.52,1.65.95,3.17.27,1.24.7,2.7,1.29,4.39l2.43,6.91c.33.94.13,1.54-.62,1.81-.15.05-.61.09-1.38.11-.77.02-1.58.18-2.42.47l-22.36,7.88c-1.74.61-2.91,1.45-3.55,2.5-.63,1.05-.71,2.25-.24,3.59.32.89,1,1.65,2.06,2.28,1.06.63,2.33,1.1,3.84,1.4l19.76-6.96c1.09-.38,1.9-.89,2.43-1.52.53-.63,1.04-1.45,1.52-2.45.06-.14.21-.39.44-.78.22-.39.45-.7.67-.95.22-.24.5-.43.85-.55.54-.19,1.01-.19,1.38.01s.68.62.91,1.27c.23.64.53,1.68.92,3.1.31,1.34.75,2.83,1.32,4.46l2.43,6.91c.33.94.13,1.54-.62,1.81-.15.05-.61.09-1.38.11-.77.02-1.58.18-2.42.47l-21.54,7.59c-1.83.65-3.17,1.33-4,2.03-.84.71-1.61,1.56-2.32,2.53-.63.89-1.25,1.44-1.84,1.65-.59.21-1.13.11-1.61-.31-.48-.41-.95-1.18-1.4-2.3-.94-2.51-2.03-4.91-3.29-7.19-.82-1.55-1.4-2.79-1.73-3.73-.21-.59-.19-1.08.07-1.44.26-.37.83-.71,1.73-1.03l4.09-1.44c-2.42-.71-4.58-1.87-6.49-3.48-1.9-1.61-3.31-3.71-4.22-6.28-1.17-3.32-1.24-6.2-.21-8.65Z"/>
        <path class="cls-1" d="M549.57,270.57c1.01-3.64,2.87-6.74,5.58-9.3,2.7-2.56,6.21-4.18,10.51-4.86,4.61-.73,8.67-.28,12.18,1.37,3.51,1.64,6.33,4.11,8.47,7.38,2.14,3.27,3.54,6.96,4.19,11.05.57,3.58.58,6.74.04,9.48s-1.51,4.93-2.9,6.56c-1.39,1.63-3.04,2.6-4.96,2.9-1.4.22-2.61-.01-3.62-.7-1.02-.69-1.63-1.71-1.84-3.06-.24-1.51,0-2.78.71-3.82.71-1.05,1.79-2.21,3.23-3.51,1.44-1.29,2.51-2.45,3.2-3.46s.92-2.22.7-3.62c-.42-2.64-1.94-4.61-4.57-5.89-2.62-1.29-6.09-1.58-10.39-.9-3.73.59-6.73,1.71-9,3.34-2.26,1.64-3.82,3.57-4.66,5.81-.84,2.24-1.07,4.57-.68,7.01.3,1.87.94,3.58,1.94,5.15.99,1.57,2.04,2.82,3.15,3.76,1.07,1.05,1.51,1.81,1.32,2.26-.13.18-.33.29-.59.33-.42.07-.94-.06-1.58-.39-2.81-1.31-5.18-3.16-7.11-5.57-1.92-2.4-3.23-5.78-3.93-10.14-.61-3.84-.41-7.58.61-11.22Z"/>
        <path class="cls-1" d="M554.02,311.66c1.63-3.41,4-6.16,7.1-8.23,3.11-2.07,6.84-3.08,11.19-3.01,4.72.08,8.67,1.22,11.84,3.42,3.17,2.2,5.51,5.1,7.03,8.7,1.52,3.59,2.24,7.49,2.17,11.69-.05,3.2-.61,6.16-1.68,8.87-1.07,2.71-2.56,4.87-4.48,6.46-1.92,1.59-4.13,2.37-6.65,2.33-3.04-.05-5.36-1.22-6.95-3.5-1.59-2.28-2.35-5.68-2.28-10.2l.21-13.07c-4.57.24-8.03,1.57-10.38,4.01-2.35,2.43-3.55,5.35-3.61,8.76-.04,2.2.23,4.07.81,5.6.58,1.53,1.41,2.99,2.49,4.37.87,1.27,1.12,2.15.75,2.61-.21.21-.45.31-.71.3-.37,0-.84-.22-1.41-.65-5.45-3.87-8.11-9.69-7.99-17.45.07-3.94.91-7.62,2.54-11.03ZM575.04,322.04c-.04,2.41.51,4.31,1.64,5.7,1.13,1.38,2.7,2.09,4.69,2.12,1.78.03,3.26-.47,4.43-1.5,1.17-1.03,1.77-2.44,1.8-4.22.04-2.41-.97-4.45-3.01-6.11-2.05-1.66-5.19-2.63-9.44-2.91l-.11,6.93Z"/>
      </g>
      <g>
        <path class="cls-1" d="M139.07,543.59c-1.19-.64-2.3-1.31-3.33-2.02-1.07-.73-1.29-1.55-.67-2.46.25-.37.62-.62,1.1-.74.48-.12,1.12-.21,1.94-.25,1.38-.07,2.53-.27,3.44-.58.91-.31,1.73-1,2.46-2.07l19-27.65c.73-1.06,1.09-2.09,1.07-3.07-.02-.98-.24-2.13-.67-3.45-.25-.95-.4-1.64-.46-2.03-.06-.4.04-.79.3-1.16.62-.9,1.46-.99,2.53-.26.45.31,1.39,1.01,2.81,2.11,1.02.89,2.01,1.65,2.95,2.3l17.67,12.14c4.6,3.16,7.41,6.66,8.45,10.52,1.04,3.85.13,7.86-2.72,12-2.85,4.15-6.25,6.35-10.2,6.59s-8.32-1.28-13.12-4.58l-8.81-6.05-7.19,10.47c-.73,1.07-1.09,2.09-1.07,3.07.02.98.24,2.13.67,3.45.25.96.4,1.64.46,2.04.06.4-.04.78-.3,1.16-.62.9-1.47.99-2.53.25-.45-.31-1.39-1.01-2.81-2.11-1.02-.88-2.01-1.65-2.95-2.3l-5.17-3.56c-.53-.37-1.48-.96-2.86-1.78ZM169.83,532.46c2.67,1.83,5.02,2.53,7.05,2.08,2.03-.45,4.14-2.27,6.35-5.47,1.66-2.42,2.69-4.47,3.08-6.13.39-1.67.23-3.14-.47-4.4-.7-1.27-1.95-2.52-3.76-3.76l-4.62-3.17-12.18,17.73,4.55,3.13Z"/>
        <path class="cls-1" d="M191.03,575.8c-1.41-.51-2.39-.88-2.94-1.12-.59-.26-.97-.57-1.14-.94s-.14-.8.08-1.31c.16-.36.39-.65.71-.87.31-.22.62-.39.92-.54.31-.14.52-.23.65-.28.98-.39,1.79-.81,2.43-1.27.63-.46,1.17-1.19,1.61-2.19l7.13-16.37c.52-1.19.76-2.18.73-2.98-.03-.8-.2-1.68-.49-2.62-.36-.92-.43-1.63-.21-2.13.24-.55.7-.9,1.4-1.06.69-.16,1.55-.04,2.58.35,1.25.49,2.4.82,3.45.97s2.42.28,4.12.37c1.78.02,3.09.21,3.91.56.55.24.88.57.99,1,.11.43,0,1.05-.37,1.88l-1.52,3.49c1.97-1.15,4.08-1.86,6.35-2.13,2.26-.26,4.49.08,6.68,1.04,1.92.84,3.25,1.96,3.99,3.37.74,1.41.76,2.94.04,4.58-.6,1.37-1.42,2.3-2.48,2.79-1.06.49-2.2.47-3.43-.07-.78-.34-1.38-.79-1.81-1.36s-.85-1.32-1.26-2.26c-.38-.87-.78-1.59-1.19-2.15-.41-.56-.98-.99-1.71-1.31-2.05-.9-4.38-.36-6.97,1.61l-7.73,17.74c-.44,1-.61,1.89-.51,2.67.1.77.34,1.65.72,2.64.05.13.14.4.26.8.12.41.2.77.22,1.08s-.03.63-.17.95c-.44,1-1.23,1.26-2.37.76-.64-.28-1.58-.75-2.82-1.39-1.08-.63-2.4-1.29-3.95-1.96l-1.85-.81c-1.55-.67-2.91-1.18-4.06-1.52Z"/>
        <path class="cls-1" d="M241.82,593.34c-2.93-2.26-5.04-5.08-6.33-8.47-1.29-3.39-1.45-7.17-.49-11.35.92-3.98,2.72-7.19,5.41-9.64,2.69-2.45,5.84-4.03,9.45-4.76,3.62-.73,7.29-.65,11.03.21,3.69.85,6.95,2.39,9.79,4.6,2.84,2.22,4.89,4.99,6.17,8.32,1.27,3.34,1.45,7.02.52,11.05-.96,4.18-2.73,7.51-5.3,10.01-2.57,2.5-5.62,4.14-9.15,4.91-3.53.77-7.18.72-10.97-.15-3.84-.89-7.21-2.46-10.14-4.72ZM248.21,588.07c.8,2.74,2.44,4.4,4.91,4.97,2.43.56,4.51-.21,6.25-2.31,1.74-2.1,3.19-5.7,4.37-10.8,1.03-4.47,1.19-8.04.49-10.74-.71-2.69-2.2-4.3-4.48-4.83-2.33-.54-4.49.25-6.49,2.37-2,2.12-3.5,5.36-4.51,9.73-1.16,5-1.33,8.87-.53,11.61Z"/>
        <path class="cls-1" d="M314.19,604.9c-.24-.36-.35-.98-.33-1.88l.03-1.12h-.45c-.67.97-1.79,1.77-3.35,2.4-1.56.63-3.34.92-5.33.87-2.49-.07-4.92-.78-7.31-2.13s-4.34-3.51-5.88-6.47c-1.54-2.95-2.25-6.72-2.13-11.3.12-4.63,1.09-8.44,2.91-11.43,1.82-2.99,4.03-5.15,6.63-6.48,2.6-1.33,5.2-1.96,7.78-1.89,1.79.05,3.27.25,4.43.6,1.16.35,2.18.91,3.06,1.68l.52.02.15-5.75c.03-1.19-.13-2.15-.49-2.86-.35-.71-.82-1.36-1.41-1.98-.24-.3-.46-.6-.65-.88s-.28-.57-.28-.87c.02-.55.3-1.01.86-1.4.56-.38,1.38-.59,2.48-.61,1.34-.02,2.53-.13,3.56-.35,1.03-.22,2.32-.59,3.88-1.1.7-.23,1.39-.44,2.07-.62.68-.18,1.29-.26,1.84-.25.6.02,1.03.2,1.29.56s.39.93.37,1.73l-1.05,40.18c-.05,1.84.1,3.25.45,4.24.35.98.83,1.95,1.46,2.91.58.86.86,1.59.84,2.19-.02.6-.28,1.03-.78,1.29-.5.26-1.36.43-2.55.5-.1,0-1.77.13-5.02.39-3.05.27-5.17.39-6.36.36-.6-.02-1.02-.21-1.26-.56ZM304.84,596.58c1.04,2.37,2.52,3.58,4.46,3.63,1.3.04,2.36-.6,3.19-1.9.83-1.3,1.38-3.16,1.64-5.6l.48-18.3c-.27-1.2-.74-2.13-1.42-2.8-.68-.67-1.49-1.01-2.44-1.04-4.58-.12-7.01,4.97-7.27,15.28-.13,4.78.33,8.35,1.36,10.72Z"/>
        <path class="cls-1" d="M349.67,601.37c-2.12-1.36-3.49-3.86-4.1-7.49l-3.22-19.15c-.18-1.08-.52-1.92-1.03-2.52-.5-.6-1.19-1.2-2.05-1.81-.11-.08-.34-.26-.66-.54-.32-.27-.58-.53-.77-.78-.19-.24-.32-.54-.37-.88-.09-.54-.01-.97.24-1.29.25-.32.69-.54,1.33-.64.59-.1,1.63-.22,3.12-.37,1.2-.05,2.64-.22,4.31-.5l6.85-1.16c.93-.15,1.46.13,1.59.87.02.15-.02.58-.12,1.31-.1.73-.09,1.5.05,2.34l3.73,22.17c.29,1.72.88,2.96,1.76,3.72.89.76,1.99,1.03,3.32.81.89-.15,1.71-.67,2.47-1.55.76-.89,1.41-2.01,1.94-3.36l-3.29-19.6c-.18-1.08-.52-1.92-1.03-2.52-.5-.6-1.19-1.2-2.05-1.81-.12-.08-.34-.26-.66-.53-.32-.28-.58-.54-.77-.78-.19-.24-.32-.54-.37-.88-.09-.54-.01-.97.24-1.29.25-.32.69-.53,1.33-.64.64-.11,1.65-.22,3.04-.36,1.3-.07,2.76-.24,4.39-.51l6.85-1.15c.93-.16,1.46.13,1.59.87.02.15-.02.58-.12,1.31-.1.73-.09,1.51.05,2.34l3.59,21.37c.31,1.82.72,3.17,1.25,4.07.53.9,1.19,1.76,1.99,2.58.73.74,1.15,1.4,1.24,1.99.1.59-.08,1.08-.55,1.46-.47.38-1.26.69-2.38.93-2.5.47-4.92,1.1-7.26,1.9-1.58.52-2.84.86-3.77,1.01-.59.1-1.04,0-1.34-.3-.3-.3-.53-.9-.68-1.78l-.68-4.05c-1.05,2.15-2.49,3.98-4.3,5.5-1.82,1.52-4,2.49-6.56,2.92-3.29.55-6,.15-8.12-1.21Z"/>
        <path class="cls-1" d="M409.43,587.94c-3.58-.26-6.81-1.4-9.7-3.43-2.89-2.03-5.06-4.98-6.51-8.85-1.55-4.15-1.9-8.01-1.03-11.58.87-3.57,2.62-6.66,5.26-9.27,2.64-2.61,5.8-4.6,9.49-5.98,3.22-1.21,6.15-1.81,8.81-1.83,2.66,0,4.87.48,6.65,1.46,1.78.99,2.99,2.34,3.64,4.07.47,1.26.48,2.43.03,3.5-.45,1.07-1.28,1.83-2.49,2.29-1.35.51-2.58.53-3.69.06-1.11-.46-2.39-1.24-3.87-2.34s-2.75-1.87-3.82-2.32c-1.07-.45-2.24-.44-3.5.03-2.38.89-3.92,2.68-4.62,5.36s-.32,5.96,1.13,9.83c1.26,3.36,2.86,5.94,4.81,7.73,1.95,1.8,4.04,2.87,6.28,3.23,2.23.36,4.45.13,6.64-.69,1.68-.63,3.15-1.55,4.43-2.77,1.27-1.22,2.24-2.43,2.9-3.64.77-1.19,1.39-1.75,1.85-1.65.19.09.33.25.42.48.14.37.12.89-.06,1.54-.68,2.86-1.96,5.41-3.83,7.66-1.87,2.24-4.77,4.1-8.69,5.56-3.45,1.29-6.97,1.81-10.55,1.56Z"/>
        <path class="cls-1" d="M450.98,569.23c-2.59-.59-4.87-2.62-6.83-6.09l-9.59-16.98c-.56-1-1.13-1.68-1.71-2.04-.58-.36-1.26-.63-2.05-.82-.34-.09-.66-.2-.95-.32-.3-.12-.52-.31-.66-.57-.24-.43-.28-.88-.12-1.35s.53-.86,1.09-1.18c.91-.52,1.58-1.42,2.02-2.73s.82-3.02,1.16-5.16c.29-1.82.58-3.22.89-4.19s.74-1.62,1.31-1.94c.78-.44,1.49-.48,2.12-.12s1.28,1.12,1.94,2.29l2.83,5.01,6.37-3.6c.74-.41,1.37-.5,1.91-.26s1.1.88,1.69,1.92c.93,1.65.83,2.79-.29,3.43-.48.27-.93.41-1.35.42-.42.01-.98-.04-1.68-.17-.7-.12-1.35-.17-1.96-.13-.61.03-1.24.23-1.89.6l-1.17.66,11.57,20.49c.96,1.69,1.85,2.73,2.67,3.13.82.39,1.69.33,2.6-.19.74-.41,1.39-1.05,1.96-1.92.57-.86,1.03-1.74,1.39-2.63.26-.55.55-.91.85-1.08.35-.19.62-.12.81.23.17.3.21.93.13,1.9-.27,2.56-.94,4.87-2.01,6.93-1.07,2.06-2.79,3.77-5.18,5.11-2.65,1.49-5.27,1.95-7.86,1.35Z"/>
        <path class="cls-1" d="M487.79,548.17c-2.48,1.2-4.54,1.95-6.19,2.23-1.65.29-2.7.23-3.14-.18-3.25-2.82-5.41-4.9-6.46-6.23-.19-.23-.27-.47-.26-.69,0-.23.13-.44.36-.62.39-.31.99-.48,1.79-.51.8-.03,1.96,0,3.48.06,3.39.11,6.37-.03,8.96-.42s4.98-1.47,7.21-3.23c1.09-.87,1.76-1.76,2.02-2.69.25-.93.05-1.8-.6-2.62-.93-1.17-2.41-1.7-4.44-1.58s-4.89.62-8.58,1.5c-3.17.73-5.79,1.23-7.86,1.51-2.07.27-4.08.23-6.02-.14-1.94-.37-3.52-1.31-4.72-2.84-2.04-2.58-2.28-5.69-.72-9.33,1.56-3.65,4.7-7.34,9.42-11.09,3.24-2.57,6.05-4.36,8.42-5.38,2.37-1.02,3.92-1.31,4.65-.87,3.57,2.18,5.91,3.93,7,5.23.43.55.41,1.01-.05,1.38-.43.34-1.05.56-1.86.66-.81.1-1.98.15-3.5.15-2.78.1-5.16.34-7.16.71-1.99.37-3.81,1.21-5.45,2.5-1.09.86-1.77,1.7-2.02,2.5-.25.8-.12,1.54.41,2.2.77.98,2.05,1.39,3.85,1.25,1.79-.15,4.31-.65,7.57-1.51,3.29-.82,6.04-1.4,8.26-1.73,2.22-.33,4.39-.27,6.52.17,2.13.45,3.89,1.54,5.28,3.3,2.23,2.81,2.6,6.11,1.11,9.89-1.48,3.78-4.57,7.53-9.26,11.24-2.85,2.26-5.52,3.99-7.99,5.19Z"/>
      </g>
      <g>
        <circle class="cls-1" cx="90.64" cy="439.71" r="24.23"/>
        <circle class="cls-1" cx="542.93" cy="439.71" r="24.23"/>
      </g>
    </g>
    <g>
      <g>
        <path class="cls-1" d="M598.6,114.38v-19.81h-7.13v-4.57h19.44v4.57h-7.09v19.81h-5.23Z"/>
        <path class="cls-1" d="M635.44,114.38v-17.07l-6.87,17.07h-2.27l-6.87-17.07v17.07h-5.19v-24.38h7.27l5.92,14.73,5.92-14.73h7.31v24.38h-5.23Z"/>
      </g>
      <path class="cls-1" d="M616.07,138.19c-19.85,0-36-16.15-36-36s16.15-36,36-36,36,16.15,36,36-16.15,36-36,36ZM616.07,69.19c-18.2,0-33,14.8-33,33s14.8,33,33,33,33-14.8,33-33-14.8-33-33-33Z"/>
    </g>
  </g>
</svg>